<?xml version="1.0" encoding="utf-8"?>
<!-- Generator: Adobe Illustrator 18.1.0, SVG Export Plug-In . SVG Version: 6.00 Build 0)  -->
<!DOCTYPE svg PUBLIC "-//W3C//DTD SVG 1.1//EN" "http://www.w3.org/Graphics/SVG/1.1/DTD/svg11.dtd">
<svg version="1.1" id="Layer_1" xmlns="http://www.w3.org/2000/svg" xmlns:xlink="http://www.w3.org/1999/xlink" x="0px" y="0px"
	 width="245px" height="230px" viewBox="0 0 245 230" enable-background="new 0 0 245 230" xml:space="preserve">
<path fill="#FFFFFF" d="M91.6,2.5c-5.3,0-10.2,2-13.9,5.8C74,12,71.9,17,71.9,22.2c0,5.3,2.1,10.2,5.8,13.9
	c3.7,3.7,8.7,5.8,13.9,5.8c5.3,0,10.2-2.1,14-5.8c7.7-7.7,7.7-20.2,0-27.9C101.9,4.5,96.9,2.5,91.6,2.5z"/>
<g>
	<polygon fill="#181716" points="11.7,207.2 11.7,207.2 11.7,207.2 	"/>
	<path fill="#DCE6F0" d="M17.9,205.5c0.3,0,0.6-0.2,0.8-0.5c0.2-0.3,0.3-0.6,0.2-0.9l-0.2-1.7c0-0.4-0.3-0.7-0.6-0.9
		c-0.2-0.2-0.4-0.3-0.4-0.3c-0.1-0.5-0.1-1.1-0.2-1.6c-0.1-0.5-0.4-0.9-0.9-1c0,0,0,0,0,0l-0.1-0.9c0,0,0,0,0.1,0
		c0.4-0.3,0.6-0.7,0.5-1.2l-0.2-1.6c-0.1-0.8-0.1-1.6,0.5-2.2c0.6-0.6,1.7-0.9,2.8-0.9c1.2,0,2.2,0.4,2.9,1c0.6,0.5,0.6,1.3,0.5,2.1
		l-0.2,1.6c-0.1,0.5,0.2,0.9,0.5,1.2c0,0,0,0,0.1,0l-0.1,0.9c0,0,0,0,0,0c-0.5,0.2-0.8,0.6-0.9,1l-0.2,1.6c0,0.1-0.2,0.2-0.4,0.4
		c-0.3,0.2-0.5,0.5-0.6,0.9l-0.2,1.7c0,0.3,0,0.7,0.2,0.9c0.2,0.3,0.5,0.4,0.8,0.5c2.2,0.3,4.3,0.8,6.2,1.7c4.7-4.8,4.7-12.5,0-17.2
		c-2.3-2.3-5.4-3.6-8.6-3.6c-3.3,0-6.3,1.3-8.6,3.6c-2.3,2.3-3.6,5.4-3.6,8.6c0,3.2,1.3,6.3,3.5,8.6
		C13.6,206.3,15.7,205.7,17.9,205.5z"/>
	<path fill="#181716" d="M20.4,210.8c-0.5,0-0.9,0-1.4-0.1C19.5,210.8,19.9,210.8,20.4,210.8z"/>
</g>
<g>
	<g>
		<g>
			<path fill="#96B4D1" d="M149.6,143.6v-6.1c0-1.5-1.2-2.7-2.7-2.7h-11.2c-1.5,0-2.7,1.2-2.7,2.7v5.7h-29.3v-5.7
				c0-1.5-1.2-2.7-2.7-2.7H89.7c-1.5,0-2.7,1.2-2.7,2.7v6.1c-6.1,4.7-36.1,48.6-36.1,51.8v27.2c0,3.4,2.8,6.1,6.1,6.1h98.4h0h24.1
				c3.4,0,6.2-2.7,6.2-6.1v-27.2C185.7,192.2,155.7,148.3,149.6,143.6z"/>
			<path fill="#384F66" d="M179.5,230H57.1c-4.1,0-7.4-3.3-7.4-7.4v-27.2c0-3.8,29.2-46.1,36.1-52.4v-5.6c0-2.2,1.8-4,4-4h11.2
				c2.2,0,4,1.8,4,4v4.4h26.8v-4.4c0-2.2,1.8-4,4-4h11.2c2.2,0,4,1.8,4,4v5.6c6.9,6.3,36.1,48.6,36.1,52.4v27.2
				C186.9,226.7,183.6,230,179.5,230z M89.7,136c-0.8,0-1.5,0.7-1.5,1.5v6.1c0,0.4-0.2,0.8-0.5,1c-6,4.6-34.9,47.1-35.6,50.9l0,27.1
				c0,2.7,2.2,4.9,4.9,4.9h122.4c2.7,0,4.9-2.2,4.9-4.9v-27.2c-0.7-3.7-29.6-46.2-35.6-50.8c-0.3-0.2-0.5-0.6-0.5-1v-6.1
				c0-0.8-0.7-1.5-1.5-1.5h-11.2c-0.8,0-1.5,0.7-1.5,1.5v5.7c0,0.7-0.6,1.2-1.2,1.2h-29.3c-0.7,0-1.2-0.6-1.2-1.2v-5.7
				c0-0.8-0.7-1.5-1.5-1.5H89.7z"/>
		</g>
		<g>
			<path fill="#96B4D1" d="M179.5,197.6h-24.1h0H57.1c-2.5,0-4.6-1.5-5.6-3.6c-0.3,0.7-0.5,1.2-0.5,1.5v27.2c0,3.4,2.8,6.1,6.1,6.1
				h98.4h0h24.1c3.4,0,6.2-2.7,6.2-6.1v-27.2c0-0.3-0.2-0.8-0.5-1.5C184.2,196.1,182,197.6,179.5,197.6z"/>
			<path fill="#384F66" d="M179.5,230H57.1c-4.1,0-7.4-3.3-7.4-7.4v-27.2c0-0.4,0.1-0.9,0.7-2c0.2-0.4,0.6-0.7,1.1-0.7c0,0,0,0,0,0
				c0.5,0,0.9,0.3,1.1,0.7c0.8,1.8,2.5,2.9,4.5,2.9h122.4c1.9,0,3.7-1.1,4.5-2.9c0.2-0.4,0.6-0.7,1.1-0.7c0.5,0,0.9,0.3,1.1,0.7
				c0.6,1.2,0.7,1.7,0.7,2v27.2C186.9,226.7,183.6,230,179.5,230z M52.1,197l0,25.6c0,2.7,2.2,4.9,4.9,4.9h122.4
				c2.7,0,4.9-2.2,4.9-4.9V197c-1.3,1.2-3.1,1.9-4.9,1.9H57.1C55.2,198.9,53.5,198.2,52.1,197z"/>
		</g>
		<g>
			<path fill="#E9CF96" d="M151.1,171.7c0,10.1-14.7,18.3-32.8,18.3c-18.1,0-32.8-8.2-32.8-18.3c0-10.1,14.7-18.3,32.8-18.3
				C136.4,153.4,151.1,161.6,151.1,171.7z"/>
			<path fill="#384F66" d="M118.3,191.2c-18.8,0-34-8.8-34-19.5c0-10.8,15.3-19.5,34-19.5c18.8,0,34,8.8,34,19.5
				C152.3,182.4,137,191.2,118.3,191.2z M118.3,154.6c-17.4,0-31.5,7.6-31.5,17c0,9.4,14.1,17,31.5,17c17.4,0,31.5-7.6,31.5-17
				C149.8,162.3,135.7,154.6,118.3,154.6z"/>
		</g>
		<g>
			<path fill="#96B4D1" d="M118.3,179.8c-14.6,0-22.7-8.1-22.7-10.8c0-2.7,8-10.8,22.7-10.8c14.6,0,22.7,8.1,22.7,10.8
				C141,171.7,132.9,179.8,118.3,179.8L118.3,179.8z"/>
			<path fill="#384F66" d="M118.3,181.1c-14.9,0-23.9-8.4-23.9-12.1c0-3.7,9-12.1,23.9-12.1c14.9,0,23.9,8.4,23.9,12.1
				C142.2,172.7,133.2,181.1,118.3,181.1z M118.3,159.4c-14.2,0-21.4,8-21.4,9.6s7.2,9.6,21.4,9.6c14.2,0,21.4-8,21.4-9.6
				S132.5,159.4,118.3,159.4z"/>
		</g>
	</g>
	<g>
		<g>
			<path fill="#96B4D1" d="M204.1,117.2c-8.3-17.4-33.2-36.7-67.3-46.6l0,0c-35.1-11.1-67.8-8.4-84.6,2c-0.9,2.1-1.7,4.3-2.3,6.5
				c-2.3,7.9-3,16-2.1,23.7c0.2,2.3,3.6,5.5,5,5.2c8.9-1.6,18.2-3.5,26.7-5.8c1.3-0.4,4.3-2.9,4.4-4.3c0.3-3.6,0.6-7.1,0.8-10.7
				c0.2-3.3,4.2-5.8,8.7-5.3c5,0.6,25.6,5.8,36.1,8.5c10.2,3.3,30.5,10.1,35.1,12.4c4.1,2,6.1,6.3,4.5,9.2c-1.7,3.2-3.4,6.3-5.1,9.5
				c-0.7,1.2,0.4,5,1.4,6c5.8,6.5,12.7,13.1,19.3,19.3c1,0.9,5.6,0.1,7-1.7c4.9-6.1,8.7-13.2,11-21.1
				C203.2,121.8,203.7,119.5,204.1,117.2z"/>
			<path fill="#384F66" d="M186.1,148.4L186.1,148.4c-1.1,0-1.9-0.2-2.4-0.7c-5.7-5.3-13.1-12.3-19.4-19.4c-1.1-1.2-2.5-5.5-1.5-7.4
				l5.1-9.5c0.6-1.1,0.4-2.3,0.2-3.1c-0.6-1.8-2.1-3.4-4.1-4.4c-4.2-2.1-23.3-8.5-34.9-12.3c-11.7-3.1-31.2-7.9-35.8-8.5
				c-3.8-0.5-7.1,1.5-7.3,4.1l-0.3,4c-0.2,2.2-0.3,4.5-0.5,6.7c-0.2,2.1-3.7,5-5.3,5.4c-9.1,2.5-19.1,4.4-26.8,5.8
				c-0.1,0-0.3,0-0.4,0c-2.3,0-5.8-3.7-6.1-6.4c-0.9-8.1-0.2-16.2,2.2-24.2c0.6-2,1.4-4.2,2.4-6.6c0.1-0.2,0.3-0.4,0.5-0.6
				c9.8-6,24.3-9.4,40.9-9.4c14.3,0,29.8,2.5,44.8,7.3c32.1,9.3,58.8,27.8,68,47.2c0.1,0.2,0.1,0.5,0.1,0.8c-0.5,2.7-1,4.9-1.6,6.9
				c-2.4,8-6.1,15.2-11.3,21.6C191.2,147.6,188.2,148.4,186.1,148.4z M185.4,145.9c0,0,0.3,0.1,0.7,0.1c1.5,0,3.7-0.7,4.5-1.6
				c4.9-6.1,8.6-13,10.8-20.7c0.5-1.8,1-3.8,1.4-6.2c-9.1-18.6-35.1-36.5-66.3-45.6c-14.7-4.7-30-7.1-44.1-7.1
				c-16,0-29.9,3.1-39.2,8.8c-0.9,2.2-1.6,4.2-2.1,6c-2.2,7.7-2.9,15.5-2.1,23.2c0.2,1.6,2.8,4.1,3.6,4.1c7.6-1.4,17.5-3.3,26.5-5.7
				c1-0.3,3.4-2.5,3.5-3.2c0.2-2.2,0.3-4.5,0.5-6.7l0.3-4c0.2-3.6,4.1-6.5,8.7-6.5c0.5,0,0.9,0,1.4,0.1c5.3,0.6,26.7,6,36.2,8.6
				c9.5,3.1,30.5,10.1,35.3,12.4c2.6,1.3,4.6,3.4,5.4,5.9c0.6,1.8,0.4,3.6-0.4,5l-5.1,9.5c-0.3,0.7,0.5,3.8,1.2,4.6
				C172.4,133.7,179.7,140.6,185.4,145.9C185.4,145.9,185.4,145.9,185.4,145.9z"/>
		</g>
		<g>
			<g>
				<path fill="#96B4D1" d="M47.8,102.9c0.2,2.3,3.6,5.5,5,5.2c8.9-1.6,18.2-3.5,26.7-5.8c1.3-0.4,4.3-2.9,4.4-4.3
					c0.1-1.6,0.3-3.2,0.4-4.7C71,93.1,58.6,94.7,47.4,98C47.5,99.6,47.6,101.3,47.8,102.9z"/>
				<path fill="#384F66" d="M52.6,109.4L52.6,109.4c-2.3,0-5.8-3.7-6.1-6.4c-0.2-1.6-0.3-3.2-0.3-5c0-0.6,0.4-1.1,0.9-1.2
					c11.4-3.3,23.9-5,37.1-4.8c0.3,0,0.7,0.2,0.9,0.4c0.2,0.3,0.4,0.6,0.3,0.9c-0.1,1.6-0.2,3.2-0.4,4.7c-0.2,2.1-3.7,5-5.3,5.4
					c-9.1,2.5-19.1,4.4-26.8,5.8C52.9,109.4,52.7,109.4,52.6,109.4z M48.7,98.9c0.1,1.4,0.1,2.6,0.3,3.8c0.2,1.6,2.7,4,3.6,4.1
					c7.6-1.4,17.5-3.3,26.5-5.7c1-0.3,3.4-2.5,3.5-3.2c0.1-1.1,0.2-2.3,0.3-3.4C70.8,94.5,59.3,96,48.7,98.9z"/>
			</g>
			<g>
				<path fill="#96B4D1" d="M166.1,117.3c-0.7,1.4-1.5,2.8-2.3,4.2c-0.7,1.2,0.4,5,1.4,6c5.8,6.5,12.7,13.1,19.3,19.3
					c1,0.9,5.6,0.1,7-1.7c1-1.3,2-2.6,2.9-3.9C186.8,132.4,177.3,124.3,166.1,117.3z"/>
				<path fill="#384F66" d="M186.1,148.4L186.1,148.4c-1.1,0-1.9-0.2-2.4-0.7c-5.7-5.3-13.1-12.3-19.4-19.4
					c-1.1-1.2-2.5-5.5-1.5-7.4l2.3-4.2c0.2-0.3,0.4-0.5,0.8-0.6c0.3-0.1,0.7,0,1,0.1c11.2,7,20.8,15.1,28.6,24.1
					c0.4,0.4,0.4,1.1,0.1,1.5c-1,1.5-2,2.8-3,4C191.2,147.6,188.2,148.4,186.1,148.4z M185.4,145.9c0,0,0.3,0.1,0.7,0.1
					c1.5,0,3.7-0.7,4.5-1.6c0.7-0.9,1.5-1.9,2.3-3.1c-7.3-8.2-16.1-15.7-26.3-22.2l-1.6,3c-0.3,0.7,0.5,3.8,1.2,4.6
					C172.4,133.7,179.7,140.6,185.4,145.9C185.4,145.9,185.4,145.9,185.4,145.9z"/>
			</g>
		</g>
	</g>
	<g>
		<g>
			<path fill="#384F66" d="M219.1,37.4c-0.7,0-1.2-0.6-1.2-1.2V22c0-0.7,0.6-1.2,1.2-1.2c0.7,0,1.2,0.6,1.2,1.2v14.2
				C220.4,36.8,219.8,37.4,219.1,37.4z"/>
		</g>
		<g>
			<path fill="#384F66" d="M225.3,33.9c-0.2,0-0.4-0.1-0.6-0.2l-12.3-7.1c-0.6-0.3-0.8-1.1-0.5-1.7c0.3-0.6,1.1-0.8,1.7-0.5
				l12.3,7.1c0.6,0.3,0.8,1.1,0.5,1.7C226.1,33.6,225.7,33.9,225.3,33.9z"/>
		</g>
		<g>
			<path fill="#384F66" d="M225.3,33.9c-0.2,0-0.4-0.1-0.6-0.2l-12.3-7.1c-0.6-0.3-0.8-1.1-0.5-1.7c0.3-0.6,1.1-0.8,1.7-0.5
				l12.3,7.1c0.6,0.3,0.8,1.1,0.5,1.7C226.1,33.6,225.7,33.9,225.3,33.9z"/>
		</g>
		<g>
			<path fill="#384F66" d="M213,33.9c-0.4,0-0.9-0.2-1.1-0.6c-0.3-0.6-0.1-1.4,0.5-1.7l12.3-7.1c0.6-0.3,1.4-0.1,1.7,0.5
				c0.3,0.6,0.1,1.4-0.5,1.7l-12.3,7.1C213.4,33.8,213.2,33.9,213,33.9z"/>
		</g>
	</g>
	<g>
		<path fill="#384F66" d="M91.7,11.3c-1.5,0-2.8,0.3-4,0.9c-1.1,0.6-2,1.4-2.6,2.3c-0.6,0.9-0.9,1.9-0.9,2.8c0,0.4,0.2,0.9,0.6,1.2
			c0.4,0.4,0.8,0.6,1.4,0.6c0.9,0,1.5-0.5,1.9-1.6c0.3-1,0.8-1.8,1.3-2.4c0.5-0.5,1.3-0.8,2.3-0.8c0.9,0,1.6,0.3,2.2,0.8
			c0.6,0.5,0.9,1.2,0.9,2c0,0.4-0.1,0.8-0.3,1.1c-0.2,0.3-0.4,0.6-0.7,0.9c-0.3,0.3-0.7,0.7-1.3,1.2c-0.7,0.6-1.3,1.2-1.7,1.6
			c-0.4,0.4-0.7,1-1,1.6c-0.3,0.6-0.4,1.3-0.4,2.1c0,0.6,0.2,1.1,0.5,1.5c0.3,0.3,0.8,0.5,1.3,0.5c1,0,1.5-0.5,1.7-1.5
			c0.1-0.5,0.2-0.8,0.2-1c0.1-0.2,0.1-0.4,0.2-0.6c0.1-0.2,0.2-0.4,0.4-0.6c0.2-0.2,0.5-0.5,0.8-0.8c1.2-1.1,2-1.8,2.5-2.3
			c0.5-0.4,0.9-1,1.2-1.6c0.3-0.6,0.5-1.3,0.5-2.2c0-1-0.3-2-0.9-2.9c-0.6-0.9-1.4-1.6-2.5-2.1C94.4,11.6,93.1,11.3,91.7,11.3
			L91.7,11.3z M91.4,28.9c-0.6,0-1.1,0.2-1.6,0.6c-0.4,0.4-0.6,0.9-0.6,1.5c0,0.7,0.2,1.2,0.7,1.6c0.4,0.4,1,0.6,1.5,0.6
			c0.6,0,1.1-0.2,1.5-0.6c0.4-0.4,0.7-0.9,0.7-1.6c0-0.6-0.2-1.1-0.6-1.5C92.5,29.2,92,28.9,91.4,28.9L91.4,28.9z"/>
	</g>
	<g>
		<path fill="#384F66" d="M91.6,44.4c-5.9,0-11.5-2.3-15.7-6.5c-4.2-4.2-6.5-9.8-6.5-15.7c0-5.9,2.3-11.5,6.5-15.7
			C80.1,2.3,85.7,0,91.6,0s11.5,2.3,15.7,6.5c8.7,8.7,8.7,22.8,0,31.4C103.2,42.1,97.6,44.4,91.6,44.4z M91.6,2.5
			c-5.3,0-10.2,2-13.9,5.8C74,12,71.9,17,71.9,22.2c0,5.3,2.1,10.2,5.8,13.9c3.7,3.7,8.7,5.8,13.9,5.8c5.3,0,10.2-2.1,14-5.8
			c7.7-7.7,7.7-20.2,0-27.9C101.9,4.5,96.9,2.5,91.6,2.5z"/>
	</g>
	<g>
		<g>
			<path fill="#384F66" d="M221.3,116c-2.5,0-4.6-0.7-6.1-1.9c-1.5-1.3-2.3-3.1-2.3-5.1c0-0.7,0-1.4,0.2-2.2
				c0.1-0.7,0.3-1.6,0.5-2.4l2.3-8.2c0.2-0.7,0.4-1.5,0.5-2.1c0.1-0.6,0.2-1.2,0.2-1.7c0-1-0.2-1.3-0.3-1.3l0,0c0,0-0.3-0.3-1.6-0.3
				c-0.5,0-1,0.1-1.5,0.2c-0.6,0.2-1.1,0.4-1.5,0.5c-0.4,0.2-0.9,0.1-1.3-0.2c-0.3-0.3-0.5-0.8-0.4-1.2l0.6-2.5
				c0.1-0.4,0.4-0.7,0.7-0.9c1.6-0.7,3.1-1.2,4.4-1.6c1.5-0.5,2.9-0.7,4.3-0.7c2.5,0,4.5,0.6,6,1.9c1.5,1.3,2.2,3,2.2,5.1
				c0,0.5-0.1,1.4-0.1,2c-0.1,1-0.3,1.9-0.5,2.7l-2.3,8.1c-0.2,0.7-0.3,1.4-0.5,2.1c-0.1,0.8-0.2,1.3-0.2,1.7c0,0.8,0.2,1.2,0.3,1.2
				c0.1,0.1,0.5,0.3,1.7,0.3c0.4,0,1-0.1,1.6-0.3c0.8-0.2,1.2-0.4,1.3-0.4c0.4-0.2,0.9-0.1,1.3,0.2c0.4,0.3,0.5,0.8,0.4,1.3
				l-0.6,2.5c-0.1,0.4-0.4,0.7-0.8,0.9c-1.8,0.7-3.3,1.3-4.5,1.7C224.4,115.8,223,116,221.3,116z M214.8,88.3c1.5,0,2.6,0.3,3.3,0.9
				c0.7,0.7,1,1.7,1,3.1c0,0.7-0.1,1.4-0.2,2.2c-0.1,0.7-0.3,1.5-0.5,2.3l-2.3,8.2c-0.2,0.8-0.3,1.5-0.4,2.1
				c-0.1,0.6-0.1,1.2-0.1,1.8c0,1.3,0.5,2.4,1.4,3.2c1,0.9,2.5,1.3,4.4,1.3c1.3,0,2.5-0.2,3.4-0.5c0.7-0.3,1.6-0.6,2.7-1
				c-1.8,0.2-3.1-0.2-4-0.8c-0.8-0.6-1.2-1.7-1.2-3.2c0-0.5,0.1-1.2,0.2-2.1c0.1-0.8,0.3-1.6,0.5-2.4l2.3-8.1
				c0.2-0.7,0.3-1.4,0.4-2.2c0.1-1.1,0.1-1.6,0.1-1.8c0-1.4-0.5-2.4-1.4-3.3c-1-0.9-2.4-1.3-4.3-1.3c-1.1,0-2.3,0.2-3.5,0.6
				c-0.8,0.3-1.7,0.5-2.5,0.9C214.3,88.3,214.6,88.3,214.8,88.3z M225.3,82.2c-1.8,0-3.4-0.6-4.7-1.8c-1.3-1.2-2-2.8-2-4.5
				c0-1.8,0.7-3.3,2-4.6c1.3-1.2,2.9-1.8,4.7-1.8c1.8,0,3.4,0.6,4.7,1.9c1.3,1.2,2,2.8,2,4.6c0,1.8-0.7,3.3-2,4.5
				C228.8,81.6,227.2,82.2,225.3,82.2z M225.3,71.9c-1.2,0-2.2,0.4-3,1.2c-0.8,0.8-1.2,1.7-1.2,2.7c0,1.1,0.4,1.9,1.2,2.7
				c0.9,0.8,1.8,1.2,3,1.2c1.2,0,2.2-0.4,3-1.2c0.8-0.8,1.2-1.6,1.2-2.7c0-1.1-0.4-2-1.2-2.7C227.5,72.3,226.5,71.9,225.3,71.9z"/>
		</g>
	</g>
	<g>
		<g>
			<path fill="#DCE6F0" d="M153.4,54.3c-0.3,0-0.5-0.1-0.7-0.2l-7-5.2c-0.3-0.2-0.5-0.6-0.5-1c0-0.4,0.2-0.8,0.5-1l7-5.2
				c0.2-0.2,0.5-0.2,0.7-0.2c0.2,0,0.4,0,0.6,0.1c0.4,0.2,0.7,0.6,0.7,1.1v1.5h15.2c0.7,0,1.2,0.6,1.2,1.2v5c0,0.7-0.6,1.2-1.2,1.2
				h-15.2v1.5c0,0.5-0.3,0.9-0.7,1.1C153.8,54.3,153.6,54.3,153.4,54.3z"/>
			<path fill="#384F66" d="M153.4,42.6v2.7h16.4v5h-16.4v2.7l-7-5.2L153.4,42.6L153.4,42.6z M153.4,40.1c-0.5,0-1,0.2-1.5,0.5
				l-7,5.2c-0.6,0.5-1,1.2-1,2c0,0.8,0.4,1.5,1,2l7,5.2c0.4,0.3,1,0.5,1.5,0.5c0.4,0,0.8-0.1,1.1-0.3c0.8-0.4,1.4-1.3,1.4-2.2v-0.2
				h13.9c1.4,0,2.5-1.1,2.5-2.5v-5c0-1.4-1.1-2.5-2.5-2.5h-13.9v-0.2c0-0.9-0.5-1.8-1.4-2.2C154.2,40.2,153.8,40.1,153.4,40.1
				L153.4,40.1z"/>
		</g>
		<g>
			<path fill="#DCE6F0" d="M162.8,39.7c-0.2,0-0.4,0-0.6-0.1c-0.4-0.2-0.7-0.6-0.7-1.1V37h-15.2c-0.7,0-1.2-0.6-1.2-1.2v-5
				c0-0.7,0.6-1.2,1.2-1.2h15.2V28c0-0.5,0.3-0.9,0.7-1.1c0.2-0.1,0.4-0.1,0.6-0.1c0.3,0,0.5,0.1,0.7,0.2l7,5.2
				c0.3,0.2,0.5,0.6,0.5,1c0,0.4-0.2,0.8-0.5,1l-7,5.2C163.3,39.6,163.1,39.7,162.8,39.7z"/>
			<path fill="#384F66" d="M162.8,28l7,5.2l-7,5.2v-2.7h-16.4v-5h16.4V28L162.8,28z M162.8,25.5c-0.4,0-0.8,0.1-1.1,0.3
				c-0.8,0.4-1.4,1.3-1.4,2.2v0.2h-13.9c-1.4,0-2.5,1.1-2.5,2.5v5c0,1.4,1.1,2.5,2.5,2.5h13.9v0.2c0,0.9,0.5,1.8,1.4,2.2
				c0.4,0.2,0.7,0.3,1.1,0.3c0.5,0,1-0.2,1.5-0.5l7-5.2c0.6-0.5,1-1.2,1-2c0-0.8-0.4-1.5-1-2l-7-5.2
				C163.9,25.7,163.3,25.5,162.8,25.5L162.8,25.5z"/>
		</g>
	</g>
	<g>
		<g>
			<path fill="#FFFFFF" d="M54.6,156c0,1.3-1.1,2.4-2.4,2.4h-7.7v8.9l-11.3-8.9H8.9c-1.3,0-2.4-1.1-2.4-2.4v-26.7
				c0-1.3,1.1-2.4,2.4-2.4h43.3c1.3,0,2.4,1.1,2.4,2.4V156z"/>
			<path fill="#384F66" d="M44.5,168.5c-0.3,0-0.6-0.1-0.8-0.3l-10.9-8.6H8.9c-2,0-3.6-1.6-3.6-3.6v-26.7c0-2,1.6-3.6,3.6-3.6h43.3
				c2,0,3.6,1.6,3.6,3.6V156c0,2-1.6,3.6-3.6,3.6h-6.5v7.7c0,0.5-0.3,0.9-0.7,1.1C44.8,168.4,44.6,168.5,44.5,168.5z M8.9,128.1
				c-0.6,0-1.1,0.5-1.1,1.1V156c0,0.6,0.5,1.1,1.1,1.1h24.3c0.3,0,0.6,0.1,0.8,0.3l9.2,7.3v-6.3c0-0.7,0.6-1.2,1.2-1.2h7.7
				c0.6,0,1.1-0.5,1.1-1.1v-26.7c0-0.6-0.5-1.1-1.1-1.1H8.9z"/>
		</g>
		<g>
			<path fill="#384F66" d="M43.3,140H16.6c-0.7,0-1.3-0.6-1.3-1.2c0-0.7,0.6-1.2,1.3-1.2h26.7c0.7,0,1.2,0.6,1.2,1.2
				C44.5,139.4,44,140,43.3,140z"/>
		</g>
		<g>
			<path fill="#384F66" d="M43.3,147.3H16.6c-0.7,0-1.3-0.6-1.3-1.2c0-0.7,0.6-1.2,1.3-1.2h26.7c0.7,0,1.2,0.6,1.2,1.2
				C44.5,146.8,44,147.3,43.3,147.3z"/>
		</g>
	</g>
	<g>
		<g>
			<path fill="#384F66" d="M20.4,213.3c-3.9,0-7.6-1.5-10.4-4.3c-2.8-2.8-4.3-6.5-4.3-10.4c0-3.9,1.5-7.6,4.3-10.4
				c2.8-2.8,6.5-4.3,10.4-4.3s7.6,1.5,10.4,4.3c5.7,5.7,5.7,15.1,0,20.8C28,211.8,24.3,213.3,20.4,213.3z M20.4,186.4
				c-3.3,0-6.3,1.3-8.6,3.6c-2.3,2.3-3.6,5.4-3.6,8.6c0,3.3,1.3,6.3,3.6,8.6c2.3,2.3,5.4,3.6,8.6,3.6c3.3,0,6.3-1.3,8.6-3.6
				c4.8-4.8,4.8-12.5,0-17.3C26.7,187.6,23.7,186.4,20.4,186.4z"/>
		</g>
		<g>
			<path fill="#384F66" d="M20.4,213.3L20.4,213.3c-3.9,0-7.6-1.5-10.4-4.3c-0.4-0.4-0.7-0.7-1-1.1c-0.3-0.4-0.4-1-0.1-1.4
				c0.3-0.6,0.8-1.1,1.3-1.3c1.9-0.9,4-1.6,6.1-1.9c-0.6-0.5-0.9-1.2-1-1.8c0-0.2,0-0.3-0.1-0.5c-0.5-0.3-0.9-0.8-0.9-1.3l-0.3-2.4
				c-0.1-0.5,0.1-0.9,0.4-1.3c0.1-0.1,0.1-0.1,0.2-0.2l-0.1-0.6c-0.1-0.9-0.3-2.8,1.3-4.2c1-1,2.7-1.6,4.5-1.6s3.5,0.6,4.6,1.7
				c1.5,1.4,1.3,3.3,1.3,4.2l-0.1,0.6c0.4,0.4,0.6,0.9,0.6,1.5l-0.3,2.4c-0.1,0.6-0.4,1.1-0.9,1.3l-0.1,0.5c0,0.6-0.4,1.2-1,1.8
				c2.1,0.4,4.1,1,6,1.9c0.6,0.3,1,0.8,1.4,1.4c0.3,0.4,0.2,1-0.1,1.4c-0.3,0.4-0.7,0.8-1,1.1C28,211.8,24.3,213.3,20.4,213.3z
				 M11.7,207.2C11.7,207.2,11.7,207.2,11.7,207.2c2.4,2.4,5.4,3.6,8.7,3.6c3.3,0,6.3-1.3,8.6-3.6c0,0,0,0,0.1-0.1
				c-1.9-0.9-4-1.4-6.2-1.7c-0.3,0-0.6-0.2-0.8-0.5c-0.2-0.3-0.3-0.6-0.2-0.9l0.2-1.7c0.1-0.4,0.3-0.7,0.6-0.9
				c0.2-0.2,0.4-0.3,0.4-0.4l0.2-1.6c0.1-0.5,0.4-0.9,0.9-1c0,0,0,0,0,0l0.1-0.9c0,0,0,0-0.1,0c-0.4-0.3-0.6-0.7-0.5-1.2l0.2-1.6
				c0.1-0.8,0.1-1.6-0.5-2.1c-0.6-0.6-1.7-1-2.9-1c-1.2,0-2.2,0.4-2.8,0.9c-0.6,0.6-0.6,1.4-0.5,2.2l0.2,1.6
				c0.1,0.5-0.2,0.9-0.5,1.2c0,0,0,0-0.1,0l0.1,0.9c0,0,0,0,0,0c0.5,0.2,0.8,0.6,0.9,1c0.1,0.5,0.1,1.1,0.2,1.6c0,0,0.1,0.2,0.4,0.3
				c0.3,0.2,0.5,0.5,0.6,0.9l0.2,1.7c0,0.3,0,0.7-0.2,0.9c-0.2,0.3-0.5,0.4-0.8,0.5C15.7,205.7,13.6,206.3,11.7,207.2z"/>
		</g>
	</g>
	<g>
		<g>
			<path fill="#384F66" d="M202.7,204.5c-0.5,0-1-0.4-1.2-0.9c-0.2-0.7,0.2-1.4,0.9-1.5c14.2-4,26-13.4,33.1-26.3
				c7.2-12.9,8.9-27.8,4.9-42c-0.2-0.7,0.2-1.4,0.9-1.5c0.7-0.2,1.4,0.2,1.5,0.9c4.2,14.8,2.4,30.4-5.1,43.9
				c-7.5,13.5-19.8,23.2-34.6,27.5C202.9,204.5,202.8,204.5,202.7,204.5z"/>
		</g>
		<g>
			<path fill="#384F66" d="M198.2,188.5c-0.5,0-1-0.4-1.2-0.9c-0.2-0.7,0.2-1.4,0.9-1.5c9.9-2.8,18.2-9.4,23.2-18.4
				c5-9,6.2-19.5,3.4-29.4c-0.2-0.7,0.2-1.4,0.9-1.5c0.7-0.2,1.4,0.2,1.5,0.9c3,10.6,1.7,21.7-3.6,31.3
				c-5.3,9.6-14.1,16.6-24.7,19.6C198.4,188.5,198.3,188.5,198.2,188.5z"/>
		</g>
		<g>
			<path fill="#384F66" d="M193.4,171.7c-0.5,0-1-0.4-1.2-0.9c-0.2-0.7,0.2-1.4,0.9-1.5c11.2-3.2,17.8-14.9,14.6-26.2
				c-0.2-0.7,0.2-1.4,0.9-1.5c0.7-0.2,1.4,0.2,1.5,0.9c3.6,12.6-3.7,25.7-16.3,29.3C193.6,171.7,193.5,171.7,193.4,171.7z"/>
		</g>
	</g>
	<g>
		<g>
			<path fill="#384F66" d="M3.4,91.3c-0.5,0-1-0.4-1.2-0.9C-6.5,59.7,11.3,27.7,41.9,19c0.7-0.2,1.4,0.2,1.5,0.9
				c0.2,0.7-0.2,1.4-0.9,1.5c-29.3,8.3-46.4,39-38,68.3c0.2,0.7-0.2,1.4-0.9,1.5C3.6,91.3,3.5,91.3,3.4,91.3z"/>
		</g>
		<g>
			<path fill="#384F66" d="M19.4,86.7c-0.5,0-1-0.4-1.2-0.9c-3-10.6-1.7-21.7,3.6-31.3c5.3-9.6,14.1-16.6,24.7-19.6
				c0.7-0.2,1.4,0.2,1.5,0.9c0.2,0.7-0.2,1.4-0.9,1.5C37.3,40.2,29,46.7,24,55.7c-5,9-6.2,19.5-3.4,29.4c0.2,0.7-0.2,1.4-0.9,1.5
				C19.6,86.7,19.5,86.7,19.4,86.7z"/>
		</g>
		<g>
			<path fill="#384F66" d="M36.2,81.9c-0.5,0-1-0.4-1.2-0.9c-3.6-12.6,3.7-25.7,16.3-29.3c0.7-0.2,1.4,0.2,1.5,0.9
				c0.2,0.7-0.2,1.4-0.9,1.5c-11.2,3.2-17.8,14.9-14.6,26.2c0.2,0.7-0.2,1.4-0.9,1.5C36.4,81.9,36.3,81.9,36.2,81.9z"/>
		</g>
	</g>
</g>
<path fill="#FFFFFF" d="M214.8,88.3c1.5,0,2.6,0.3,3.3,0.9c0.7,0.7,1,1.7,1,3.1c0,0.7-0.1,1.4-0.2,2.2c-0.1,0.7-0.3,1.5-0.5,2.3
	l-2.3,8.2c-0.2,0.8-0.3,1.5-0.4,2.1c-0.1,0.6-0.1,1.2-0.1,1.8c0,1.3,0.5,2.4,1.4,3.2c1,0.9,2.5,1.3,4.4,1.3c1.3,0,2.5-0.2,3.4-0.5
	c0.7-0.3,1.6-0.6,2.7-1c-1.8,0.2-3.1-0.2-4-0.8c-0.8-0.6-1.2-1.7-1.2-3.2c0-0.5,0.1-1.2,0.2-2.1c0.1-0.8,0.3-1.6,0.5-2.4l2.3-8.1
	c0.2-0.7,0.3-1.4,0.4-2.2c0.1-1.1,0.1-1.6,0.1-1.8c0-1.4-0.5-2.4-1.4-3.3c-1-0.9-2.4-1.3-4.3-1.3c-1.1,0-2.3,0.2-3.5,0.6
	c-0.8,0.3-1.7,0.5-2.5,0.9C214.3,88.3,214.6,88.3,214.8,88.3z"/>
<path fill="#FFFFFF" d="M225.3,71.9c-1.2,0-2.2,0.4-3,1.2c-0.8,0.8-1.2,1.7-1.2,2.7c0,1.1,0.4,1.9,1.2,2.7c0.9,0.8,1.8,1.2,3,1.2
	c1.2,0,2.2-0.4,3-1.2c0.8-0.8,1.2-1.6,1.2-2.7c0-1.1-0.4-2-1.2-2.7C227.5,72.3,226.5,71.9,225.3,71.9z"/>
</svg>
