<?xml version="1.0" encoding="utf-8"?>
<!-- Generator: Adobe Illustrator 18.1.0, SVG Export Plug-In . SVG Version: 6.00 Build 0)  -->
<!DOCTYPE svg PUBLIC "-//W3C//DTD SVG 1.1//EN" "http://www.w3.org/Graphics/SVG/1.1/DTD/svg11.dtd">
<svg version="1.1" id="Layer_1" xmlns="http://www.w3.org/2000/svg" xmlns:xlink="http://www.w3.org/1999/xlink" x="0px" y="0px"
	 width="235px" height="235px" viewBox="0 0 235 235" enable-background="new 0 0 235 235" xml:space="preserve">
<g>
	<g>
		<path fill="#DCE6F0" d="M121,77.5c-4.6,2.2-8.6,5.3-11.7,9.1L70.5,66.1c9.3-14.3,23.1-25.5,39.9-31.3L121,77.5z"/>
		<path fill="#384F66" d="M109.3,88c-0.2,0-0.4-0.1-0.6-0.2L69.9,67.4c-0.3-0.2-0.6-0.5-0.7-0.9c-0.1-0.4,0-0.8,0.2-1.1
			c9.7-14.8,24.1-26.2,40.6-31.9c0.4-0.1,0.8-0.1,1.1,0.1c0.3,0.2,0.6,0.5,0.7,0.9l10.7,42.7c0.2,0.6-0.1,1.3-0.7,1.6
			c-4.5,2.2-8.2,5.1-11.3,8.8C110.1,87.8,109.7,88,109.3,88z M72.5,65.6L109,84.9c2.9-3.3,6.4-6,10.5-8.1l-10-40.2
			C94.5,42.1,81.5,52.3,72.5,65.6z"/>
	</g>
	<g>
		<path fill="#96B4D1" d="M169.4,97.3c-5.1-14.3-19-23.8-34.5-23.2l-10.6-42.7c0.5-0.1,1-0.2,1.5-0.3c40.6-5.5,78.1,21.1,87,60.3
			L169.4,97.3z"/>
		<path fill="#384F66" d="M169.4,98.7c-0.6,0-1.1-0.4-1.3-0.9C163.2,84,149.7,74.9,135,75.4c-0.7,0-1.2-0.4-1.4-1l-10.6-42.7
			c-0.1-0.4,0-0.8,0.2-1.1c0.2-0.3,0.6-0.5,0.9-0.6c0.2,0,0.4-0.1,0.6-0.1c0.3-0.1,0.6-0.1,0.8-0.2c3.6-0.5,7.2-0.7,10.8-0.7
			c36.9,0,69.6,26.1,77.8,62.1c0.1,0.4,0,0.8-0.2,1.1c-0.2,0.3-0.6,0.5-0.9,0.6l-43.4,5.9C169.5,98.7,169.4,98.7,169.4,98.7z
			 M136.3,72.7c15.1,0,28.6,9.2,34,23.1l40.8-5.5c-8.5-34-39.7-58.5-74.8-58.5c-3.4,0-6.9,0.2-10.4,0.7l10,40.2
			C136.1,72.7,136.2,72.7,136.3,72.7z"/>
	</g>
	<g>
		<path fill="#384F66" d="M190.2,167.3c0,0-0.1,0-0.1,0c-0.4,0-0.7-0.2-1-0.5L162,132.4c-0.4-0.5-0.4-1.2,0-1.7
			c4.7-5.6,7.4-12.2,7.9-19.3c0-0.6,0.5-1.2,1.2-1.3l43.4-5.9c0.4-0.1,0.8,0.1,1.1,0.3c0.3,0.2,0.5,0.6,0.5,1
			c1,23.1-8.1,45.5-24.9,61.4C190.9,167.2,190.5,167.3,190.2,167.3z M164.8,131.5l25.5,32.4c15.2-15,23.6-35.5,23.1-56.8l-40.8,5.5
			C171.9,119.5,169.2,126,164.8,131.5z"/>
	</g>
	<g>
		<path fill="#FFFFFF" d="M102.6,99.2c-1.3,4.6-1.8,9.5-1.1,14.5c2.6,19.2,20.3,32.7,39.5,30.1c3.9-0.5,7.5-1.8,10.9-3.5l27.1,34.5
			c-9.4,6.1-20.3,10.4-32.2,12c-43,5.8-82.6-24.3-88.4-67.3c-1.9-14.4,0.2-28.3,5.4-40.8L102.6,99.2z"/>
		<path fill="#384F66" d="M136.2,188.9c-39.8,0-73.8-29.8-79.1-69.2c-1.9-14,0-28.3,5.5-41.5c0.1-0.4,0.4-0.6,0.8-0.8
			c0.4-0.1,0.8-0.1,1.1,0.1L103.2,98c0.6,0.3,0.9,1,0.7,1.6c-1.3,4.5-1.7,9.2-1.1,13.9c2.3,16.7,16.6,29.2,33.4,29.2h0
			c1.5,0,3-0.1,4.6-0.3c3.3-0.5,6.8-1.6,10.4-3.4c0.6-0.3,1.3-0.1,1.7,0.4L180,174c0.2,0.3,0.3,0.7,0.3,1.1
			c-0.1,0.4-0.3,0.7-0.6,0.9c-10,6.5-21,10.6-32.8,12.2C143.4,188.7,139.7,188.9,136.2,188.9z M64.5,80.7
			c-4.9,12.3-6.5,25.6-4.8,38.7c5.2,38.1,38,66.9,76.4,66.9c0,0,0,0,0,0c3.5,0,7-0.2,10.4-0.7c10.8-1.5,21-5.2,30.4-11L151.4,142
			c-3.6,1.7-7,2.7-10.3,3.1c-1.6,0.2-3.3,0.3-4.9,0.3h0c-18.1,0-33.7-13.6-36.1-31.6c-0.6-4.7-0.3-9.4,0.8-13.9L64.5,80.7z"/>
	</g>
</g>
<g>
	<g>
		<path fill="#384F66" d="M31.3,122.6H1.4c-0.8,0-1.4-0.6-1.4-1.4V91.3C0,90.6,0.6,90,1.4,90c0.8,0,1.4,0.6,1.4,1.4v28.5h28.5
			c0.8,0,1.4,0.6,1.4,1.4C32.6,122,32,122.6,31.3,122.6z"/>
	</g>
	<g>
		<path fill="#384F66" d="M11.4,117.6H6.3c-0.7,0-1.3-0.6-1.3-1.3v-7.1c0-0.7,0.6-1.3,1.3-1.3h5.1c0.7,0,1.3,0.6,1.3,1.3v7.1
			C12.6,117.1,12.1,117.6,11.4,117.6z M7.6,115.1h2.5v-4.6H7.6V115.1z"/>
	</g>
	<g>
		<path fill="#384F66" d="M30.9,117.6h-5c-0.7,0-1.3-0.6-1.3-1.3v-25c0-0.7,0.6-1.3,1.3-1.3h5c0.7,0,1.3,0.6,1.3,1.3v25
			C32.1,117.1,31.6,117.6,30.9,117.6z M27.1,115.1h2.5V92.6h-2.5V115.1z"/>
	</g>
	<g>
		<path fill="#384F66" d="M21.1,117.6h-5.1c-0.7,0-1.3-0.6-1.3-1.3v-15.9c0-0.7,0.6-1.3,1.3-1.3h5.1c0.7,0,1.3,0.6,1.3,1.3v15.9
			C22.4,117.1,21.8,117.6,21.1,117.6z M17.3,115.1h2.5v-13.3h-2.5V115.1z"/>
	</g>
</g>
<g>
	<g>
		<g>
			<path fill="#E9CF96" d="M110.7,184.3c0,26.4-21.4,47.8-47.8,47.8c-26.4,0-47.8-21.4-47.8-47.8c0-26.4,21.4-47.8,47.8-47.8
				C89.3,136.5,110.7,157.9,110.7,184.3z"/>
		</g>
		<g>
			<path fill="#E9CF96" d="M112.2,184.3c0,27.2-22.1,49.3-49.3,49.3c-27.2,0-49.3-22.1-49.3-49.3c0-27.2,22.1-49.3,49.3-49.3
				C90.1,135,112.2,157.1,112.2,184.3z"/>
			<path fill="#384F66" d="M62.9,235c-28,0-50.7-22.7-50.7-50.7c0-27.9,22.7-50.7,50.7-50.7c27.9,0,50.7,22.7,50.7,50.7
				C113.5,212.3,90.8,235,62.9,235z M62.9,136.4c-26.4,0-48,21.5-48,47.9c0,26.4,21.5,47.9,48,47.9c26.4,0,47.9-21.5,47.9-47.9
				C110.8,157.9,89.3,136.4,62.9,136.4z"/>
		</g>
		<g>
			<path fill="#E9CF96" d="M100.5,184.3c0,20.8-16.9,37.6-37.6,37.6c-20.8,0-37.7-16.9-37.7-37.6c0-20.8,16.9-37.6,37.7-37.6
				C83.6,146.7,100.5,163.5,100.5,184.3z"/>
			<path fill="#384F66" d="M62.9,223.3c-21.5,0-39-17.5-39-39c0-21.5,17.5-39,39-39c21.5,0,39,17.5,39,39
				C101.9,205.8,84.4,223.3,62.9,223.3z M62.9,148c-20,0-36.3,16.3-36.3,36.3c0,20,16.3,36.3,36.3,36.3c20,0,36.3-16.3,36.3-36.3
				C99.1,164.3,82.9,148,62.9,148z"/>
		</g>
	</g>
	<g>
		<g>
			<path fill="#384F66" d="M61.7,211.2c-0.8,0-1.4-0.6-1.4-1.4v-52.4c0-0.8,0.6-1.4,1.4-1.4c0.8,0,1.4,0.6,1.4,1.4v52.4
				C63,210.6,62.4,211.2,61.7,211.2z"/>
		</g>
		<g>
			<g>
				<path fill="#384F66" d="M61.4,205.9c-6.4,0-11.6-5.2-11.6-11.6h2.7c0,4.9,4,8.8,8.8,8.8c4.9,0,8.8-4,8.8-8.8c0-4-2.4-6-6.8-9.5
					c-0.9-0.7-1.9-1.5-2.9-2.4l1.8-2.1c1,0.9,2,1.6,2.9,2.4c4.7,3.8,7.8,6.3,7.8,11.6C73,200.7,67.8,205.9,61.4,205.9z"/>
			</g>
			<g>
				<path fill="#384F66" d="M60.7,182.7c-0.9-0.7-1.7-1.4-2.5-2c-3.9-3.2-6.8-5.4-6.8-10.1c0-5.6,4.5-10.1,10.1-10.1
					c5.6,0,10.1,4.5,10.1,10.1h-2.7c0-4.1-3.3-7.4-7.4-7.4c-4.1,0-7.4,3.3-7.4,7.4c0,3.4,1.9,4.9,5.8,8c0.8,0.6,1.6,1.3,2.5,2.1
					L60.7,182.7z"/>
			</g>
		</g>
	</g>
</g>
<g>
	<g>
		<g>
			<path fill="#E9CF96" d="M102.2,29.9c0,15.2-12.4,27.6-27.6,27.6c-15.2,0-27.6-12.4-27.6-27.6S59.4,2.3,74.7,2.3
				C89.9,2.3,102.2,14.6,102.2,29.9z"/>
		</g>
		<g>
			<path fill="#E9CF96" d="M103.1,29.9c0,15.7-12.7,28.5-28.5,28.5c-15.7,0-28.5-12.7-28.5-28.5c0-15.7,12.7-28.5,28.5-28.5
				C90.4,1.4,103.1,14.2,103.1,29.9z"/>
			<path fill="#384F66" d="M74.7,59.8c-16.5,0-29.9-13.4-29.9-29.9S58.2,0,74.7,0c16.5,0,29.9,13.4,29.9,29.9S91.1,59.8,74.7,59.8z
				 M74.7,2.8c-14.9,0-27,12.1-27,27s12.1,27,27,27c14.9,0,27-12.1,27-27S89.6,2.8,74.7,2.8z"/>
		</g>
		<g>
			<circle fill="#E9CF96" cx="74.7" cy="29.9" r="21.7"/>
			<path fill="#384F66" d="M74.7,53c-12.8,0-23.2-10.4-23.2-23.1c0-12.8,10.4-23.1,23.2-23.1c12.8,0,23.1,10.4,23.1,23.1
				C97.8,42.6,87.4,53,74.7,53z M74.7,9.6c-11.2,0-20.3,9.1-20.3,20.3c0,11.2,9.1,20.3,20.3,20.3c11.2,0,20.3-9.1,20.3-20.3
				C95,18.7,85.9,9.6,74.7,9.6z"/>
		</g>
	</g>
</g>
<g>
	<g>
		<g>
			<path fill="#384F66" d="M233.6,190.3c-0.4,0-0.7-0.1-1-0.4l-9.2-9.2l-9.2,9.2c-0.6,0.6-1.5,0.6-2,0c-0.6-0.6-0.6-1.5,0-2
				l10.2-10.2c0.6-0.6,1.5-0.6,2,0l10.2,10.2c0.6,0.6,0.6,1.5,0,2C234.3,190.2,233.9,190.3,233.6,190.3z"/>
		</g>
		<g>
			<path fill="#384F66" d="M223.4,219.9c-0.8,0-1.4-0.6-1.4-1.4l0-37c0-0.8,0.6-1.4,1.4-1.4c0.8,0,1.4,0.6,1.4,1.4l0,37
				C224.8,219.2,224.2,219.9,223.4,219.9z"/>
		</g>
	</g>
	<g>
		<g>
			<path fill="#384F66" d="M214.3,210c-0.4,0-0.7-0.1-1-0.4l-9.2-9.2l-9.2,9.2c-0.6,0.6-1.5,0.6-2,0c-0.6-0.6-0.6-1.5,0-2l10.2-10.2
				c0.6-0.6,1.5-0.6,2,0l10.2,10.2c0.6,0.6,0.6,1.5,0,2C215,209.8,214.6,210,214.3,210z"/>
		</g>
		<g>
			<path fill="#384F66" d="M204.1,219.9c-0.8,0-1.4-0.6-1.4-1.4l0-17.3c0-0.8,0.6-1.4,1.4-1.4s1.4,0.6,1.4,1.4l0,17.3
				C205.5,219.2,204.9,219.9,204.1,219.9z"/>
		</g>
	</g>
</g>
<g>
	<g>
		<g>
			<path fill="#384F66" d="M223.4,53.5h-10.1c-0.8,0-1.4-0.6-1.4-1.4V21.6c0-0.8,0.6-1.4,1.4-1.4h10.1c0.8,0,1.4,0.6,1.4,1.4v30.4
				C224.8,52.9,224.1,53.5,223.4,53.5z M214.7,50.6h7.3V23.1h-7.3V50.6z"/>
		</g>
		<g>
			<path fill="#384F66" d="M206.8,53.5h-10.1c-0.8,0-1.4-0.6-1.4-1.4V34.7c0-0.8,0.6-1.4,1.4-1.4h10.1c0.8,0,1.4,0.6,1.4,1.4v17.4
				C208.2,52.9,207.5,53.5,206.8,53.5z M198,50.6h7.3V36.1H198V50.6z"/>
		</g>
		<g>
			<path fill="#384F66" d="M190.1,53.5H180c-0.8,0-1.4-0.6-1.4-1.4v-8c0-0.8,0.6-1.4,1.4-1.4h10.1c0.8,0,1.4,0.6,1.4,1.4v8
				C191.6,52.9,190.9,53.5,190.1,53.5z M181.4,50.6h7.3v-5.1h-7.3V50.6z"/>
		</g>
		<g>
			<path fill="#384F66" d="M210.5,18.9c-0.4,0-0.7-0.1-1-0.4c-0.6-0.6-0.6-1.5,0-2l6.3-6.3l-6.3-6.3c-0.6-0.6-0.6-1.5,0-2
				c0.6-0.6,1.5-0.6,2,0l7.3,7.3c0.6,0.6,0.6,1.5,0,2l-7.3,7.3C211.2,18.8,210.9,18.9,210.5,18.9z"/>
		</g>
		<g>
			<path fill="#384F66" d="M185.5,36.3c-0.1,0-0.2,0-0.3,0c-0.8-0.1-1.3-0.9-1.1-1.7c2.9-15,16-25.8,31.1-25.8
				c0.8,0,1.4,0.6,1.4,1.4c0,0.8-0.6,1.4-1.4,1.4c-13.8,0-25.7,9.9-28.3,23.5C186.8,35.8,186.2,36.3,185.5,36.3z"/>
		</g>
	</g>
	<rect x="214.7" y="23.1" fill="#FFFFFF" width="7.3" height="27.6"/>
	<rect x="198" y="36.1" fill="#FFFFFF" width="7.3" height="14.6"/>
	<rect x="181.4" y="45.5" fill="#FFFFFF" width="7.3" height="5.1"/>
</g>
<path fill="#384F66" d="M74.9,20.7c-1.1,0-2.1,0.2-3,0.7c-0.9,0.4-1.5,1-2,1.8c-0.5,0.8-0.7,1.7-0.7,2.7c0,0.7,0.2,1.7,0.6,3h-0.7
	c-1,0-1.5,0.4-1.5,1.2c0,0.4,0.2,0.7,0.5,0.9c0.3,0.1,0.8,0.2,1.3,0.2h1c0.1,0.5,0.1,0.9,0.1,1.1c0,0.6-0.1,1.2-0.4,1.8
	c-0.3,0.6-0.6,1.1-1,1.5c-0.5,0.4-0.8,0.7-1,0.9c-0.2,0.2-0.4,0.4-0.5,0.6c-0.1,0.2-0.2,0.4-0.2,0.5c0,0.5,0.1,0.8,0.4,1.1
	c0.3,0.3,0.6,0.4,0.9,0.4c0.2,0,0.7-0.1,1.3-0.4c0.6-0.3,1.1-0.4,1.3-0.5c0.3-0.1,0.6-0.1,0.9-0.1c0.3,0,0.6,0,0.8,0
	c0.2,0,0.4,0.1,0.6,0.1c0.2,0,0.3,0.1,0.3,0.1c2.5,0.6,3.9,0.8,4.5,0.8c0.9,0,1.7-0.2,2.4-0.5c0.8-0.4,1.1-0.9,1.1-1.5
	c0-0.4-0.1-0.7-0.4-1c-0.3-0.3-0.6-0.4-1-0.4c-0.1,0-0.5,0.1-1,0.2C79,36,78.5,36,78.1,36c-0.3,0-1-0.1-1.9-0.2
	c-1-0.1-1.7-0.2-2.3-0.2c-0.4,0-0.7,0-1.1,0.1c-0.3,0-0.6,0.1-0.9,0.2c-0.3,0.1-0.5,0.1-0.8,0.2c0.9-1,1.5-1.9,1.9-2.6
	c0.4-0.7,0.5-1.4,0.5-2.2v-0.2h2.1c0.4,0,0.7-0.1,0.9-0.3c0.2-0.2,0.4-0.5,0.4-0.8c0-0.5-0.2-0.8-0.5-0.9c-0.4-0.1-0.9-0.2-1.5-0.2
	h-1.8c-0.2-0.8-0.4-1.4-0.5-1.8c-0.1-0.4-0.2-0.8-0.2-1.3c0-0.8,0.2-1.4,0.7-1.9c0.5-0.5,1-0.7,1.8-0.7c0.7,0,1.2,0.2,1.6,0.6
	c0.4,0.4,0.7,1,1,1.9c0.3,0.9,0.8,1.3,1.6,1.3c0.4,0,0.8-0.2,1.1-0.5c0.3-0.3,0.5-0.7,0.5-1.1c0-1.1-0.5-2.1-1.4-3.1
	c-0.5-0.6-1.2-1-1.9-1.2C76.7,20.8,75.9,20.7,74.9,20.7L74.9,20.7z"/>
</svg>
