<?xml version="1.0" encoding="utf-8"?>
<!-- Generator: Adobe Illustrator 18.1.0, SVG Export Plug-In . SVG Version: 6.00 Build 0)  -->
<!DOCTYPE svg PUBLIC "-//W3C//DTD SVG 1.1//EN" "http://www.w3.org/Graphics/SVG/1.1/DTD/svg11.dtd">
<svg version="1.1" id="Layer_1" xmlns="http://www.w3.org/2000/svg" xmlns:xlink="http://www.w3.org/1999/xlink" x="0px" y="0px"
	 width="235px" height="235px" viewBox="0 0 235 235" enable-background="new 0 0 235 235" xml:space="preserve">
<g>
	<defs>
		<polyline id="SVGID_1_" points="87,143.2 0,143.2 0,27.6 87,27.6 		"/>
	</defs>
	<clipPath id="SVGID_2_">
		<use xlink:href="#SVGID_1_"  overflow="visible"/>
	</clipPath>
	<g clip-path="url(#SVGID_2_)">
		<g>
			<g>
				<path fill="#FFFFFF" d="M1.6,119.6c0,6.4,5.2,11.7,11.7,11.7h116.6c6.4,0,11.7-5.2,11.7-11.7V45.7c0-6.4-5.2-11.7-11.7-11.7
					H13.3c-6.4,0-11.7,5.2-11.7,11.7V119.6z"/>
				<path fill="#384F66" d="M129.8,132.8H13.3c-7.3,0-13.3-5.9-13.3-13.3V45.7c0-7.3,5.9-13.3,13.3-13.3h116.6
					c7.3,0,13.2,5.9,13.2,13.3v73.8C143.1,126.9,137.1,132.8,129.8,132.8z M13.3,35.7c-5.6,0-10.1,4.5-10.1,10.1v73.8
					c0,5.5,4.5,10.1,10.1,10.1h116.6c5.5,0,10.1-4.5,10.1-10.1V45.7c0-5.6-4.5-10.1-10.1-10.1H13.3z"/>
			</g>
			<g>
				<rect x="105.1" y="76.5" fill="#E9CF96" width="22.1" height="12.4"/>
				<path fill="#384F66" d="M125.6,78v9.2h-18.9V78H125.6L125.6,78z M128.7,74.9h-25.3v15.5h25.3V74.9L128.7,74.9z"/>
			</g>
			<g>
				<g>
					<path fill="#384F66" d="M32.3,87.6c-10.8,0-19.6-8.9-19.6-19.8c0-10.9,8.8-19.8,19.6-19.8c10.8,0,19.6,8.9,19.6,19.8
						C51.9,78.7,43.1,87.6,32.3,87.6z M32.3,51.2c-9,0-16.4,7.5-16.4,16.6c0,9.2,7.3,16.6,16.4,16.6c9,0,16.4-7.4,16.4-16.6
						C48.7,58.6,41.4,51.2,32.3,51.2z"/>
				</g>
				<g>
					<path fill="#384F66" d="M58.4,87.6c-10.8,0-19.6-8.9-19.6-19.8c0-10.9,8.8-19.8,19.6-19.8C69.2,48,78,56.9,78,67.8
						C78,78.7,69.2,87.6,58.4,87.6z M58.4,51.2c-9,0-16.4,7.5-16.4,16.6c0,9.2,7.3,16.6,16.4,16.6c9,0,16.4-7.4,16.4-16.6
						C74.8,58.6,67.4,51.2,58.4,51.2z"/>
				</g>
				<g>
					<path fill="#384F66" d="M32.3,87.1c-5.2,0-9.1-8.3-9.1-19.3c0-11,3.9-19.3,9.1-19.3c5.2,0,9.1,8.3,9.1,19.3
						C41.4,78.8,37.5,87.1,32.3,87.1z M32.3,51.7c-2.5,0-5.9,6.1-5.9,16.1c0,10,3.4,16.1,5.9,16.1c2.5,0,5.9-6.1,5.9-16.1
						C38.2,57.8,34.8,51.7,32.3,51.7z"/>
				</g>
				<g>
					<rect x="14.3" y="66.2" fill="#384F66" width="36" height="3.2"/>
				</g>
				<g>
					<g>
						<rect x="17.3" y="57.7" fill="#384F66" width="30" height="3.2"/>
					</g>
					<g>
						<rect x="17.3" y="74.7" fill="#384F66" width="30" height="3.2"/>
					</g>
				</g>
			</g>
			<g>
				<rect x="102.6" y="98" fill="#384F66" width="24.9" height="3.2"/>
			</g>
			<g>
				<rect x="90.8" y="110.7" fill="#384F66" width="36.7" height="3.2"/>
			</g>
			<g>
				<rect x="33.4" y="116.6" fill="#96B4D1" width="94.1" height="3.2"/>
			</g>
			<g>
				<rect x="74.2" y="98" fill="#384F66" width="24.9" height="3.2"/>
			</g>
			<g>
				<rect x="45.8" y="98" fill="#384F66" width="24.9" height="3.2"/>
			</g>
			<g>
				<rect x="17.4" y="98" fill="#384F66" width="24.9" height="3.2"/>
			</g>
		</g>
	</g>
</g>
<g>
	<g>
		<path fill="#384F66" d="M172,176.9H98.6c-6.4,0-11.6-5.2-11.6-11.6V11.6C87,5.2,92.2,0,98.6,0H172c6.4,0,11.6,5.2,11.6,11.6v153.7
			C183.6,171.7,178.4,176.9,172,176.9z M98.6,2.5c-5,0-9.1,4.1-9.1,9.1v153.7c0,5,4.1,9.1,9.1,9.1H172c5,0,9.1-4.1,9.1-9.1V11.6
			c0-5-4.1-9.1-9.1-9.1H98.6z M174.1,141.3H96.5c-0.7,0-1.3-0.6-1.3-1.3V28.9c0-0.7,0.6-1.3,1.3-1.3h77.6c0.7,0,1.3,0.6,1.3,1.3V140
			C175.4,140.7,174.8,141.3,174.1,141.3z M97.7,138.8h75.1V30.2H97.7V138.8z"/>
		<path fill="#384F66" d="M172,177.3H98.6c-6.6,0-12-5.4-12-12V11.6c0-6.6,5.4-12,12-12H172c6.6,0,12,5.4,12,12v153.7
			C184,171.9,178.6,177.3,172,177.3z M98.6,0.4c-6.2,0-11.2,5-11.2,11.3v153.7c0,6.2,5,11.2,11.2,11.2H172c6.2,0,11.2-5,11.2-11.2
			V11.6c0-6.2-5-11.3-11.2-11.3H98.6z M172,174.8H98.6c-5.2,0-9.5-4.3-9.5-9.5V11.6c0-5.2,4.3-9.5,9.5-9.5H172
			c5.2,0,9.5,4.3,9.5,9.5v153.7C181.5,170.5,177.2,174.8,172,174.8z M98.6,2.9c-4.8,0-8.7,3.9-8.7,8.7v153.7c0,4.8,3.9,8.7,8.7,8.7
			H172c4.8,0,8.7-3.9,8.7-8.7V11.6c0-4.8-3.9-8.7-8.7-8.7H98.6z M174.1,141.7H96.5c-0.9,0-1.6-0.7-1.6-1.6V28.9
			c0-0.9,0.7-1.6,1.6-1.6h77.6c0.9,0,1.6,0.7,1.6,1.6V140C175.7,140.9,175,141.7,174.1,141.7z M96.5,28c-0.5,0-0.9,0.4-0.9,0.9V140
			c0,0.5,0.4,0.9,0.9,0.9h77.6c0.5,0,0.9-0.4,0.9-0.9V28.9c0-0.5-0.4-0.9-0.9-0.9H96.5z M173.2,139.2H97.3V29.8h75.9V139.2z
			 M98.1,138.4h74.4V30.5H98.1V138.4z"/>
	</g>
</g>
<path fill="#DCE6F0" d="M98.6,2.5c-5,0-9.1,4.1-9.1,9.1v153.7c0,5,4.1,9.1,9.1,9.1H172c5,0,9.1-4.1,9.1-9.1V11.6
	c0-5-4.1-9.1-9.1-9.1H98.6z"/>
<rect x="96.5" y="28.9" fill="#96B4D1" width="77.6" height="111.1"/>
<g>
	<g>
		<g>
			<path fill="#E9CF96" d="M174.1,79.7c0,21.4-17.4,38.8-38.8,38.8c-21.4,0-38.8-17.4-38.8-38.8c0-21.4,17.4-38.8,38.8-38.8
				C156.7,40.9,174.1,58.3,174.1,79.7z"/>
			<path fill="#384F66" d="M135.3,119.7c-22,0-40-17.9-40-40c0-22,17.9-40,40-40c22,0,40,17.9,40,40
				C175.3,101.8,157.3,119.7,135.3,119.7z M135.3,42.1c-20.7,0-37.6,16.9-37.6,37.6c0,20.7,16.9,37.6,37.6,37.6
				c20.7,0,37.6-16.9,37.6-37.6C172.9,59,156,42.1,135.3,42.1z"/>
		</g>
		<g>
			<path fill="#E9CF96" d="M172.9,79.7c0,20.8-16.8,37.6-37.6,37.6c-20.8,0-37.6-16.8-37.6-37.6c0-20.8,16.8-37.6,37.6-37.6
				C156.1,42.1,172.9,58.9,172.9,79.7z"/>
		</g>
		<g>
			<path fill="#E9CF96" d="M164.9,79.7c0,16.3-13.3,29.6-29.6,29.6c-16.3,0-29.6-13.3-29.6-29.6c0-16.4,13.3-29.6,29.6-29.6
				C151.6,50.1,164.9,63.4,164.9,79.7z"/>
			<path fill="#384F66" d="M135.3,110.5c-17,0-30.8-13.8-30.8-30.8c0-17,13.8-30.8,30.8-30.8s30.8,13.8,30.8,30.8
				C166.1,96.7,152.3,110.5,135.3,110.5z M135.3,51.3c-15.7,0-28.4,12.7-28.4,28.4c0,15.7,12.7,28.4,28.4,28.4s28.4-12.7,28.4-28.4
				C163.7,64,151,51.3,135.3,51.3z"/>
		</g>
	</g>
	<g>
		<g>
			<path fill="#E9CF96" d="M134.4,58.5v41.2V58.5z"/>
			<rect x="133.2" y="58.5" fill="#384F66" width="2.4" height="41.2"/>
		</g>
		<g>
			<g>
				<path fill="#E9CF96" d="M134.2,77.4c4.9,4.1,8,5.7,8,10.2c0,4.4-3.6,8-8,8c-4.4,0-8-3.6-8-8L134.2,77.4z"/>
				<path fill="#384F66" d="M134.2,96.8c-5.1,0-9.2-4.1-9.2-9.2h2.4c0,3.8,3.1,6.8,6.8,6.8c3.8,0,6.8-3.1,6.8-6.8
					c0-3.1-1.8-4.6-5.3-7.4c-0.7-0.6-1.5-1.2-2.3-1.9l1.5-1.8c0.8,0.7,1.6,1.3,2.3,1.8c3.6,2.9,6.2,5,6.2,9.3
					C143.4,92.6,139.2,96.8,134.2,96.8z"/>
			</g>
			<g>
				<path fill="#E9CF96" d="M134.3,77.6c-4.2-3.5-6.9-4.9-6.9-8.7c0-3.8,3.1-6.9,6.9-6.9c3.8,0,6.9,3.1,6.9,6.9L134.3,77.6z"/>
				<path fill="#384F66" d="M133.5,78.5c-0.7-0.6-1.3-1.1-1.9-1.6c-3.1-2.5-5.4-4.3-5.4-8.1c0-4.5,3.6-8.1,8.1-8.1
					c4.5,0,8.1,3.6,8.1,8.1H140c0-3.1-2.6-5.7-5.7-5.7c-3.1,0-5.7,2.6-5.7,5.7c0,2.5,1.3,3.6,4.5,6.2c0.6,0.5,1.3,1,2,1.6
					L133.5,78.5z"/>
			</g>
		</g>
	</g>
</g>
<g>
	<path fill="#384F66" d="M172,176.9H98.6c-6.4,0-11.6-5.2-11.6-11.6V11.6C87,5.2,92.2,0,98.6,0H172c6.4,0,11.6,5.2,11.6,11.6v153.7
		C183.6,171.7,178.4,176.9,172,176.9z M98.6,2.5c-5,0-9.1,4.1-9.1,9.1v153.7c0,5,4.1,9.1,9.1,9.1H172c5,0,9.1-4.1,9.1-9.1V11.6
		c0-5-4.1-9.1-9.1-9.1H98.6z M174.1,141.3H96.5c-0.7,0-1.3-0.6-1.3-1.3V28.9c0-0.7,0.6-1.3,1.3-1.3h77.6c0.7,0,1.3,0.6,1.3,1.3V140
		C175.4,140.7,174.8,141.3,174.1,141.3z M97.7,138.8h75.1V30.2H97.7V138.8z"/>
</g>
<g>
	<path fill="#FFFFFF" d="M224.1,140.7c-4.2,0-7.7,2.8-8.9,6.6c-1.5-0.4-3-0.6-4.5-0.7v-6.3c0-5.1-4.1-9.3-9.3-9.3
		c-5.1,0-9.3,4.2-9.3,9.3v6.3h-4.5v-14.7c0-5.1-4.1-9.2-9.3-9.2c-5.1,0-9.3,4.1-9.3,9.2v14.8c-1.5,0.1-3,0.3-4.5,0.6v-44
		c0-5.1-4.1-9.3-9.3-9.3c-5.1,0-9.3,4.1-9.3,9.3v66.3c0,0.3,0,0.7,0,1v23.1l-4.3-4.3V171c0-7.5-6.1-13.7-13.7-13.7h-4.5
		c-0.2,0-0.4,0-0.6,0v17.1c0,0-0.1,0-0.1,0v22.7l30.6,30c4.3,4.1,10.1,6.6,16.5,6.6h39.1c13.3,0,24-10.8,24-24v-16.1v-23V150
		C233.4,144.9,229.2,140.7,224.1,140.7z"/>
	<g>
		<path fill="#384F66" d="M209.3,235h-39.1c-6.5,0-12.7-2.5-17.4-7l-30.7-30c-0.2-0.2-0.4-0.6-0.4-0.9v-22.7c0-0.2,0-0.3,0.1-0.5
			v-16.6c0-0.7,0.5-1.2,1.2-1.3c0.3,0,0.5,0,0.7,0h4.5c8.2,0,14.9,6.7,14.9,14.9v18l1.8,1.8v-20c0-0.3,0-0.5,0-0.8l0-0.3l0-66.2
			c0-5.8,4.7-10.5,10.5-10.5c5.8,0,10.5,4.7,10.5,10.5v42.4c0.6-0.1,1.3-0.2,1.9-0.2v-13.6c0-5.8,4.7-10.5,10.5-10.5
			c5.8,0,10.5,4.7,10.5,10.5v13.5h1.9v-5c0-5.8,4.7-10.5,10.5-10.5c5.8,0,10.5,4.7,10.5,10.5v5.2c0.8,0.1,1.7,0.2,2.5,0.4
			c1.6-3.8,5.5-6.4,9.7-6.4c5.8,0,10.5,4.7,10.5,10.5v59.7C234.6,223.7,223.3,235,209.3,235z M124.3,196.6l30.3,29.6
			c4.2,4,9.8,6.3,15.7,6.3h39.1c12.6,0,22.8-10.2,22.8-22.8V150c0-4.4-3.6-8-8-8c-3.5,0-6.7,2.4-7.7,5.7c-0.2,0.6-0.9,1-1.5,0.9
			c-1.4-0.3-2.8-0.6-4.3-0.7c-0.7,0-1.2-0.6-1.2-1.3v-6.3c0-4.4-3.6-8-8-8c-4.4,0-8,3.6-8,8v6.3c0,0.7-0.6,1.3-1.3,1.3h-4.5
			c-0.7,0-1.3-0.6-1.3-1.3v-14.7c0-4.4-3.6-8-8-8c-4.4,0-8,3.6-8,8v14.8c0,0.7-0.5,1.2-1.2,1.3c-1.4,0.1-2.9,0.3-4.2,0.6
			c-0.4,0.1-0.8,0-1.1-0.2c-0.3-0.2-0.5-0.6-0.5-1v-44c0-4.4-3.6-8-8-8c-4.4,0-8,3.6-8,8l0,66.7c0,0.2,0,0.4,0,0.6v23.1
			c0,0.5-0.3,1-0.8,1.2c-0.5,0.2-1,0.1-1.4-0.3l-4.3-4.3c-0.2-0.2-0.4-0.6-0.4-0.9V171c0-6.8-5.6-12.4-12.4-12.4h-3.9v15.9
			c0,0.2,0,0.3-0.1,0.5V196.6z"/>
		<path fill="#384F66" d="M209.3,235.4h-39.1c-6.6,0-12.9-2.5-17.7-7.1l-30.7-30c-0.3-0.3-0.5-0.7-0.5-1.2v-22.7
			c0-0.2,0-0.4,0.1-0.5v-16.6c0-0.8,0.7-1.6,1.5-1.6c0.3,0,0.5,0,0.7,0h4.5c8.4,0,15.3,6.9,15.3,15.3v17.8l1,1v-19.1
			c0-0.3,0-0.5,0-0.8l0-0.3l0-66.2c0-6,4.9-10.9,10.9-10.9c6,0,10.9,4.9,10.9,10.9v42c0.4-0.1,0.8-0.1,1.2-0.2v-13.2
			c0-6,4.9-10.9,10.9-10.9c6,0,10.9,4.9,10.9,10.9V145h1.2v-4.6c0-6,4.9-10.9,10.9-10.9c6,0,10.9,4.9,10.9,10.9v4.9
			c0.6,0.1,1.3,0.2,1.9,0.3c1.8-3.8,5.7-6.4,9.9-6.4c6,0,10.9,4.9,10.9,10.9v59.7C235,223.9,223.5,235.4,209.3,235.4z M123.8,156.4
			c-0.2,0-0.3,0-0.6,0c-0.5,0-0.8,0.4-0.8,0.9l0,16.8c0,0.1-0.1,0.2-0.1,0.3v22.7c0,0.2,0.1,0.5,0.3,0.6l30.7,30
			c4.7,4.4,10.7,6.9,17.1,6.9h39.1c13.7,0,24.9-11.2,24.9-24.9V150c0-5.6-4.5-10.1-10.1-10.1c-4,0-7.8,2.5-9.3,6.2l-0.1,0.3
			l-0.3-0.1c-0.8-0.2-1.6-0.3-2.4-0.4l-0.3,0v-5.5c0-5.6-4.5-10.1-10.1-10.1c-5.6,0-10.1,4.5-10.1,10.1v5.4h-2.7v-13.8
			c0-5.6-4.5-10.1-10.1-10.1c-5.6,0-10.1,4.5-10.1,10.1v13.9l-0.3,0c-0.7,0.1-1.3,0.1-1.9,0.2l-0.4,0.1v-42.9
			c0-5.6-4.5-10.1-10.1-10.1c-5.6,0-10.1,4.5-10.1,10.1l0,66.2l0,0.4c0,0.2,0,0.5,0,0.7v20.9l-2.5-2.5V171c0-8-6.5-14.5-14.5-14.5
			H123.8z M209.3,232.9h-39.1c-5.9,0-11.6-2.3-15.9-6.4L124,196.8l0-22c0-0.1,0.1-0.2,0.1-0.3v-16.3h4.2c7,0,12.8,5.7,12.8,12.8
			v18.5c0,0.2,0.1,0.5,0.3,0.6l4.3,4.3c0.2,0.2,0.6,0.3,1,0.2c0.3-0.1,0.5-0.5,0.5-0.8v-23.1c0-0.2,0-0.4,0-0.6l0-66.8
			c0-4.6,3.8-8.4,8.4-8.4c4.6,0,8.4,3.8,8.4,8.4v44c0,0.3,0.1,0.5,0.3,0.7c0.2,0.2,0.5,0.2,0.8,0.2c1.4-0.3,2.8-0.5,4.3-0.6
			c0.5,0,0.8-0.4,0.8-0.9v-14.8c0-4.6,3.8-8.4,8.4-8.4c4.6,0,8.4,3.8,8.4,8.4v14.7c0,0.5,0.4,0.9,0.9,0.9h4.5c0.5,0,0.9-0.4,0.9-0.9
			v-6.3c0-4.6,3.8-8.4,8.4-8.4c4.6,0,8.4,3.8,8.4,8.4v6.3c0,0.5,0.4,0.9,0.8,0.9c1.5,0.1,3,0.3,4.4,0.7c0.4,0.1,0.9-0.2,1.1-0.6
			c1-3.5,4.3-6,8-6c4.6,0,8.4,3.8,8.4,8.4v59.7C232.5,222.5,222.1,232.9,209.3,232.9z M124.7,196.4l30.2,29.5
			c4.2,4,9.6,6.2,15.4,6.2h39.1c12.4,0,22.4-10.1,22.4-22.4V150c0-4.2-3.4-7.6-7.6-7.6c-3.3,0-6.4,2.2-7.3,5.5
			c-0.2,0.8-1.1,1.3-2,1.1c-1.3-0.3-2.7-0.6-4.2-0.6c-0.9-0.1-1.5-0.8-1.5-1.6v-6.3c0-4.2-3.4-7.6-7.6-7.6c-4.2,0-7.6,3.4-7.6,7.6
			v6.3c0,0.9-0.7,1.6-1.6,1.6h-4.5c-0.9,0-1.6-0.7-1.6-1.6v-14.7c0-4.2-3.4-7.6-7.6-7.6c-4.2,0-7.6,3.4-7.6,7.6v14.8
			c0,0.9-0.7,1.6-1.6,1.6c-1.4,0.1-2.8,0.2-4.2,0.6c-0.5,0.1-1,0-1.4-0.3c-0.4-0.3-0.6-0.8-0.6-1.3v-44c0-4.2-3.4-7.6-7.6-7.6
			c-4.2,0-7.6,3.4-7.6,7.6l0,66.7c0,0.2,0,0.4,0,0.6v23.1c0,0.7-0.4,1.3-1,1.5c-0.6,0.2-1.3,0.1-1.8-0.4l-4.3-4.3
			c-0.3-0.3-0.5-0.7-0.5-1.2V171c0-6.6-5.4-12-12-12h-3.5v15.5c0,0.2,0,0.4-0.1,0.5V196.4z"/>
	</g>
</g>
<g>
	<rect x="123.5" y="15.3" fill="#384F66" width="23.6" height="2.5"/>
</g>
</svg>
