<?xml version="1.0" encoding="utf-8"?>
<!-- Generator: Adobe Illustrator 18.1.0, SVG Export Plug-In . SVG Version: 6.00 Build 0)  -->
<!DOCTYPE svg PUBLIC "-//W3C//DTD SVG 1.1//EN" "http://www.w3.org/Graphics/SVG/1.1/DTD/svg11.dtd">
<svg version="1.1" id="Layer_1" xmlns="http://www.w3.org/2000/svg" xmlns:xlink="http://www.w3.org/1999/xlink" x="0px" y="0px"
	 width="200px" height="235px" viewBox="0 0 200 235" enable-background="new 0 0 200 235" xml:space="preserve">
<g>
	<g>
		<path fill="#96B4D1" d="M117.2,9.9c-44.9,0-81.3,36.5-81.3,81.3c0,44.9,36.5,81.3,81.3,81.3c44.8,0,81.3-36.5,81.3-81.3
			C198.6,46.4,162.1,9.9,117.2,9.9z"/>
		<path fill="#384F66" d="M117.2,174c-45.6,0-82.8-37.1-82.8-82.8c0-45.6,37.1-82.8,82.8-82.8c45.6,0,82.8,37.1,82.8,82.8
			C200,136.9,162.9,174,117.2,174z M117.2,11.3c-44.1,0-79.9,35.9-79.9,79.9c0,44.1,35.9,79.9,79.9,79.9c44.1,0,79.9-35.8,79.9-79.9
			C197.2,47.2,161.3,11.3,117.2,11.3z"/>
	</g>
	<g>
		<g>
			<path fill="#DCE6F0" d="M195.1,113.4c-1.5,0-4.1,1.5-5.1,2.7c-0.7,0.9-4.3,2.8-4.3,3.6c0,0.2-4.4,4.1-4.5,6.2
				c-0.2,2.7,0.6,8.4,3.7,7.7c3.7-0.9,5.1-5.8,6.5-9C192,123.2,195.7,113.3,195.1,113.4C194,113.4,195.2,113.4,195.1,113.4z"/>
			<g>
				<path fill="#384F66" d="M184.4,135c-1,0-1.8-0.4-2.5-1.2c-2-2.1-2.2-6.6-2.1-8.1c0.1-2,2.2-4.3,4.2-6.4c0.2-0.2,0.3-0.3,0.4-0.4
					c0.3-0.8,1.3-1.6,2.9-2.7c0.5-0.4,1.4-1,1.6-1.2c1-1.2,3.5-2.7,5.4-3.1c0.1,0,0.2,0,0.3-0.1l0,0l0.3,0c0.1,0,0.1,0,0.2,0l0.8,0
					l0,0h0.6l0,2.8l-0.2,0c-0.7,3.6-3.5,10.3-3.6,10.4c-0.2,0.5-0.5,1.1-0.7,1.6c-1.3,3.2-3,7.3-6.8,8.2
					C185,135,184.7,135,184.4,135z M187.1,120c-0.1,0.4-0.4,0.7-1,1.3c-2.2,2.3-3.4,3.8-3.4,4.6c-0.1,2,0.4,5,1.3,6
					c0.4,0.4,0.5,0.3,0.7,0.2c2.4-0.6,3.7-3.7,4.8-6.5c0.2-0.6,0.5-1.2,0.7-1.7c0.5-1.1,2.2-5.8,3.1-8.5c-0.9,0.4-1.7,1-2.1,1.5
					c-0.4,0.5-1.1,1-2.1,1.7C188.4,119,187.4,119.7,187.1,120z"/>
			</g>
		</g>
		<g>
			<path fill="#DCE6F0" d="M60.8,115.4c-0.1,0.2,2.7,3.4,3,4c0.9,1.8,0.4,3.3,1,5c1.4,4.1-2.4,8.4-0.6,12.6c0.8,1.7-0.3,6,0,8.5
				c0.4,3.6,1.8,8,6,7.1c-2.5,0.5,0.3-7.5,0.3-7.4c0-1.4-1-3.7,0-4.9c1.1-1.3,3.9-2.9,4.3-4.3c0.5-1.7-0.1-3.2,2.4-3.2
				c1.1-0.1,1.5-3.4,2.2-3.9c1.4-1.1,0.8-3.4,2.5-4.5c2.3-1.3,2.4-2.3,2.7-5c0.4-3.4,3.1-5.6,3.9-8.8c0.3-4.7-4.1-3.7-6.9-5.5
				c-2.3-1.5-3-0.8-4.3-3.2c-0.8-1.5-3.6-3.7-5.1-4.7c-1.9-1.4-6.9-4.6-9.2-3.8c-1.6,0.5-5.9,5-6.9,0.9c-0.4-1.5-2.9-9.7-5.3-7.5
				c-3.6,3.5-5.2-4.2-1.5-6.5c1-0.6,3.8,0.5,4.3-0.2c1.4-2,4.1,2.7,4.5,2.9c0.1,0.1,1-6.3,2.3-6.9c3.4-1.8,1.8-5.6,5.5-7.1
				c0.9-0.4,0.9-2.4,1.9-3.1c1.6-1.1,2.2,0.2,4-0.9c-0.2,0.1,0.2-3.3,0.5-3.8c0.3-0.6,2.9-1.4,3-0.9c0,0.2-1.5,3.8,0.1,3.2
				c0.5-0.2,1.8,1.6,2.6,0.3c0.6-1.1-2.1-6.7-2.7-7.9c-1.2-2.1-1.9-5.5-4.3-5.2c-0.8,0.1-4.2-5.7-6.5-4.2
				c-0.2,0.1-1.3,10.7-2.7,10.3c-0.7-0.2-1-1.8-1.3-2.3c-0.5-0.6-1.5-0.4-2.1-0.7c-1.7-0.9-3.2-2.3-3.2-4.2
				c-0.1-2.2,11.8-9.7,8.2-11.3c3.4,1.4,6.5-1,5.1,4.8c-6.7,2.8,8,6.1,4.1,0.4c1.7,2.4,2.2-2.3,2.2-2.7c0-0.4-3.3-1.5-2.1-2.4
				c1.4-1-1.9-2.4-2.5-2.4c-0.9,0-4.5-3.1-5.7-2.3c-1.9,1.1-1.7-2.1-3.5,0.9c-1.2,2.1,1.6,4.1,0.1,5.7c-0.4,0.5-1.8-2.8-1.9-2.9
				c-2.2-3.6-2.7,2.2-3.3,2.5c-0.4-0.1-0.8-0.3-1.2-0.5c-0.9,1.1-1.8,2.2-2.6,3.3c-2.1,2.8-4,5.7-5.8,8.8c-3.4,6-14.9,28.4-7.3,33.1
				c0.2,0.1,0.1-2.1,0.2-2.2c0.6-0.4,2.3,3.9,2.3,4.2c0.6,2.8,2,3.3,4.7,4.2c4,1.3,6.2,4.4,9.5,6.2c4.4,2.3,2.8,3.9,1.7,8.5
				c-0.3,1.2,1,4.9,1.2,4.9C57.3,110.5,60.8,115.4,60.8,115.4C60.6,115.7,60.9,115.2,60.8,115.4z"/>
			<g>
				<path fill="#384F66" d="M69.3,154.2c-2.4,0-5.5-1.5-6.4-8.5c-0.2-1.3,0-2.8,0.1-4.2c0.1-1.4,0.3-3.2,0-3.9
					c-1.1-2.6-0.5-5.2,0.1-7.5c0.5-1.9,0.9-3.6,0.4-5.2c-0.3-0.9-0.4-1.8-0.4-2.5c-0.1-0.8-0.1-1.6-0.5-2.3
					c-0.1-0.2-0.6-0.8-1.1-1.4c-0.2-0.2-0.3-0.4-0.5-0.6l0,0l-0.3-0.4c-0.2-0.3-0.4-0.6-0.6-0.8h-0.1l-0.8-1.4l0,0
					c-2.4-3.8-2.2-5-1.9-5.5c-0.5-1.4-1.1-3.8-0.9-4.9c0.2-0.8,0.4-1.6,0.6-2.3c0.8-2.9,0.9-3.3-1.6-4.7c-1.5-0.8-2.8-1.8-4-2.8
					c-1.7-1.3-3.2-2.6-5.3-3.3c-2.7-0.9-4.9-1.6-5.7-5.3c-0.1-0.2-0.2-0.6-0.4-1.1c-0.2,0.1-0.4,0.2-0.7,0.2h-0.4l-0.4-0.2
					c-9.1-5.7,4.1-30.2,6.8-35c1.8-3.1,3.7-6.1,5.9-9c0.8-1.1,1.7-2.3,2.6-3.3l0.7-0.9l0.8,0.4c0.4-1.4,1.1-3.2,2.8-3.2
					c0.5,0,1,0.2,1.4,0.5c0.1-0.4,0.2-0.9,0.5-1.3c0.6-1.1,1.4-2.1,2.5-2.1c0.7,0,1.2,0.4,1.4,0.6c0,0,0,0,0,0
					c1.7-0.9,3.5,0.3,5.3,1.4c0.5,0.3,1.1,0.7,1.4,0.8c0.5,0,3.3,0.9,3.9,2.6c0.2,0.5,0.1,1-0.1,1.5c0.2,0.1,0.4,0.2,0.5,0.3
					c0.8,0.4,1.4,0.8,1.5,1.7c0,0.1-0.1,3-1.2,4.3c-0.1,0.1-0.2,0.2-0.3,0.3c0,0.5-0.1,0.9-0.3,1.2c-0.6,1.2-2,1.7-4,1.6
					c0.1,0.1,0.2,0.2,0.3,0.3c0.3,0.3,0.6,0.7,0.8,0.9c0,0,0,0,0,0c2.6,0,3.6,2.5,4.5,4.4c0.2,0.5,0.4,1,0.7,1.5
					c0.6,1.2,3.8,7.3,2.7,9.3c-0.4,0.8-1.1,1.2-1.9,1.2c-0.8,0-1.4-0.4-1.9-0.7c0,0,0,0,0,0c-0.7,0.1-1.3-0.2-1.7-0.7
					c-0.1-0.2-0.2-0.4-0.3-0.6c-0.1,0.5-0.1,1-0.1,1.2l-1.4,0.1v0.1l0.8,1.2l-0.4,0.2c-0.9,0.5-1.8,0.6-2.6,0.5
					c-0.2,0-0.3-0.3-0.9,0.2c-0.2,0.1-0.4,0.7-0.5,1c-0.3,0.8-0.7,1.8-1.7,2.2c-1.3,0.5-1.6,1.3-2.1,2.7c-0.5,1.4-1.1,3.2-3.3,4.3
					c-0.2,0.3-0.7,2-1.3,4.9c-0.2,1.2-0.4,2.2-1.6,2.2h-0.3l-0.3-0.1c-0.4-0.2-0.7-0.5-1.2-1.2c-0.3-0.4-1.2-1.6-1.8-2
					c-0.6,0.7-1.8,0.7-3.2,0.5c-0.6-0.1-1.4-0.1-1.4-0.1c-1,0.7-1.4,2.1-1.3,3.2c0,1,0.4,1.5,0.5,1.6c0,0,0.2,0,0.7-0.5
					c0.7-0.7,1.4-0.8,1.8-0.8c3.5,0,5.6,8,5.8,8.9c0.1,0.5,0.3,0.6,0.3,0.6c0.7,0,1.9-0.8,2.7-1.4c0.8-0.5,1.4-0.9,2-1.1
					c0.4-0.1,0.8-0.2,1.2-0.2c3.6,0,9,4,9.3,4.2c2.1,1.6,4.6,3.6,5.5,5.2c0.6,1.2,0.9,1.3,1.7,1.6c0.5,0.2,1.2,0.5,2.1,1.1
					c0.7,0.5,1.6,0.7,2.6,1c2.2,0.6,5.3,1.5,5,5.8l0,0.3c-0.4,1.6-1.2,3-2,4.3c-0.9,1.4-1.7,2.8-1.9,4.4c-0.3,2.8-0.5,4.4-3.4,6
					c-0.4,0.2-0.5,0.6-0.8,1.5c-0.2,0.9-0.5,2-1.5,2.8c-0.1,0.2-0.3,0.7-0.4,1c-0.5,1.4-1.1,3.2-2.7,3.2c-0.6,0-0.7,0.1-0.7,0.1
					c0,0.1-0.1,0.4-0.1,0.7c-0.1,0.4-0.1,0.9-0.3,1.4c-0.4,1.3-1.7,2.4-3,3.4c-0.6,0.5-1.2,1-1.6,1.4c-0.3,0.3,0,1.5,0.1,2.2
					c0.1,0.6,0.2,1.1,0.2,1.6l0,1.5l-0.5,0c-0.5,1.6-1.1,4.3-0.9,5c-0.1-0.2-0.3-0.4-0.7-0.4l0.5,2.8l0,0l0,0c0,0,0,0,0,0
					C70.1,154.2,69.7,154.2,69.3,154.2z M62.4,115.4c0.3,0.4,0.9,1.1,1.2,1.5c0.9,1.1,1.3,1.6,1.4,1.9c0.7,1.3,0.7,2.4,0.8,3.4
					c0.1,0.7,0.1,1.2,0.3,1.8c0.8,2.4,0.2,4.7-0.3,6.8c-0.5,2-1,3.9-0.3,5.6c0.6,1.3,0.4,3.2,0.3,5.3c-0.1,1.3-0.2,2.7-0.1,3.6
					c0.4,2.9,1.1,4.8,2.2,5.6c0.1-2.1,0.9-4.7,1.3-5.8c0-0.3-0.1-0.6-0.2-1c-0.3-1.4-0.6-3.3,0.5-4.6c0.5-0.6,1.2-1.2,1.9-1.8
					c0.7-0.6,1.9-1.6,2.1-2c0.1-0.3,0.1-0.7,0.2-1c0.2-1.1,0.5-3,3.1-3.2c0.2-0.3,0.4-1,0.5-1.3c0.3-1,0.6-1.8,1.3-2.3
					c0.3-0.2,0.4-0.6,0.6-1.3c0.3-1,0.6-2.4,2.1-3.3c1.6-0.9,1.7-1.2,2-3.8c0.3-2.3,1.3-4,2.3-5.6c0.7-1.1,1.3-2.2,1.7-3.4
					c0.1-1.8-0.7-2.1-2.9-2.8c-1.1-0.3-2.3-0.6-3.4-1.4c-0.7-0.4-1.2-0.7-1.7-0.9c-1.2-0.5-2.1-1-3.1-2.9c-0.5-0.9-2.1-2.3-4.7-4.3
					c-2-1.5-5.7-3.7-7.6-3.7c-0.2,0-0.3,0-0.4,0c-0.2,0.1-0.9,0.5-1.3,0.8c-1,0.7-2.1,1.4-3.3,1.7c1.9,1.9,1.3,3.9,0.6,6.3
					c-0.2,0.6-0.4,1.3-0.6,2.1c-0.1,0.6,0.6,3.2,0.9,3.8l-1.1,0.6l0.1,1.6c0.6-0.1,0.9-0.6,0.8-0.9c0,0.3,0.5,1.5,1.6,3.2h0.1
					L62.4,115.4L62.4,115.4z M39.4,80.8c2.1,0,3.6,5.3,3.6,5.4c0.4,2,1.1,2.3,3.8,3.2c2.6,0.8,4.4,2.3,6.2,3.8
					c0.6,0.5,1.2,1,1.8,1.4c-0.6-2.4-2.1-5.9-3-6.6c-0.9,0.8-1.7,1.2-2.6,1.2h0c-1.4,0-2.6-1-3.1-2.7c-0.7-2.4,0-5.7,2.5-7.3
					c0.8-0.5,1.9-0.4,3.2-0.3c0.4,0,0.7,0.1,1,0.1c0.5-0.5,1.1-0.8,1.7-0.8c1.1,0,2,0.7,2.9,1.7c0.7-2.9,1.3-4.5,2.4-5
					c1.2-0.6,1.5-1.5,1.9-2.7c0.5-1.5,1.2-3.3,3.5-4.4c0.1-0.2,0.2-0.5,0.3-0.7c0.3-0.8,0.7-1.7,1.5-2.3c0.9-0.6,1.8-0.8,2.9-0.7
					c0.2,0,0.3,0,0.5,0c0.1-1.5,0.6-3.4,0.6-3.5c0.6-1.3,3.2-1.9,4-1.9c0,0,0,0,0.1,0c-0.4-0.8-0.7-1.6-1.1-2.2
					c-0.3-0.5-0.5-1.1-0.8-1.7c-0.5-1.2-1.2-2.7-1.9-2.7l-0.4,0c-0.9,0-1.6-0.7-2.6-1.9c-0.6-0.7-1.9-2.1-2.7-2.5
					c0,0.2-0.1,0.3-0.1,0.5c-1.1,7.5-1.8,9.9-3.8,9.9l-0.4,0c-1.2-0.3-1.7-1.6-2-2.4c0-0.1-0.1-0.2-0.1-0.3c-0.1,0-0.2,0-0.3,0
					c-0.4,0-0.9-0.1-1.4-0.3c-2.5-1.3-3.9-3.2-4-5.4c-0.1-1.5,1.5-3,4.5-5.7c0.7-0.6,1.6-1.5,2.5-2.3c-1-0.2-1.6-1.3-2.6-3.4l0,0
					c-0.1,0.3-0.2,0.6-0.2,0.7c-0.3,1.1-0.6,1.8-1.3,2.2L56,41.2l-0.5-0.2c-0.1,0-0.2-0.1-0.3-0.1c-0.6,0.8-1.3,1.6-1.9,2.4
					c-2.1,2.7-4,5.7-5.7,8.7c-5.3,9.3-11.3,23.4-9.3,29.2c0,0,0.1-0.1,0.1-0.1l0.4-0.3L39.4,80.8z M56.6,49.6
					c0.1,1.5,1.6,2.4,2.4,2.9c0,0,0.3,0,0.4,0.1c0.6,0.1,1.5,0.2,2.2,1c0.1,0.1,0.1,0.2,0.2,0.2c0.3-1.3,0.7-3.3,1.1-6
					c0.3-2,0.3-2.3,1-2.6c0.4-0.3,0.9-0.4,1.4-0.4c0-0.8,0.3-1.8,2-2.7c0.3-1.3,0.1-1.7,0.1-1.7c-0.1,0-0.7-0.1-1.1-0.1
					c-0.3,0-0.6,0-0.9-0.1c-0.6,1.6-2.5,3.4-5.2,5.8C58.9,47.2,56.9,48.9,56.6,49.6z M68.5,44.6c0.5,0.3,1.4,0.5,2.4,0.5
					c0.5,0,0.8-0.1,0.9-0.1c0-0.1-0.1-0.4-0.4-0.7l2.2-1.6c-0.3,0-0.6,0.2-0.7,0.2c0.2-0.2,0.3-0.9,0.4-1.5c0,0,0,0,0,0
					c-1-0.6-2.2-1.3-2.3-2.5c0-0.4,0.1-0.7,0.3-1c-0.4-0.2-0.9-0.5-1.2-0.5c0,0,0,0,0,0c-0.6,0-1.3-0.4-2.5-1.1
					c-0.7-0.4-2-1.2-2.5-1.3c-1,0.5-2,0.3-2.6,0c-0.1,0.1-0.1,0.2-0.2,0.4c-0.2,0.4-0.1,0.9,0.2,1.8c0.2,0.6,0.6,1.4,0.5,2.3l1-2.4
					c0.8,0.4,1.7,0.4,2.5,0.5c1.1,0.1,2.4,0.2,3.2,1.3c0.7,1,0.8,2.4,0.2,4.7L69.7,44l-0.7,0.3C68.8,44.4,68.6,44.5,68.5,44.6z"/>
			</g>
		</g>
		<g>
			<path fill="#DCE6F0" d="M70.3,65.9L70.3,65.9C70.3,65.9,70.3,65.9,70.3,65.9z"/>
			<g>
				<polygon fill="#384F66" points="70.3,67.3 69.2,67.3 68.7,65.2 70,64.5 70.3,65.4 70.3,64.5 70.3,65.4 70.5,65.9 71.7,65.6 
					70.5,65.9 71,67.2 70.8,66.7 70.9,67.2 70.6,67.3 				"/>
			</g>
		</g>
		<g>
			<path fill="#DCE6F0" d="M64.8,31.6c3.9-0.7,2.8-3.8,6.6-5.4c1.5-0.6,5.9-5.9,6.9-5.8c-1.5-0.2-5.4,2.8-6.7,3.5
				c-3.5,2.4-6.9,5.1-10,8C62.7,31.9,63.7,31.7,64.8,31.6C65.7,31.4,64.1,31.7,64.8,31.6z"/>
			<g>
				<path fill="#384F66" d="M57.7,33.7l2.9-2.8c3.2-3,6.6-5.8,10.2-8.2c0.4-0.2,0.8-0.5,1.3-0.9c2.4-1.6,4.4-2.9,5.9-2.9l0.4,0
					l-0.2,1.5l0.3,1.2c-0.5,0.2-1.9,1.6-2.9,2.6c-1.8,1.8-2.9,2.8-3.8,3.2c-1.4,0.6-1.9,1.4-2.5,2.3c-0.7,1.1-1.6,2.5-3.8,3
					C65.4,33,65.1,33,64.7,33c-1,0.1-2,0.3-2.9,0.3L57.7,33.7z"/>
			</g>
		</g>
		<g>
			<path fill="#DCE6F0" d="M123.6,132.8c3.5-2.1,5.8-8,7.2-11.6c0.9-2.3,2.1-4.1,2.6-6.7c0.5-2.8-0.2-6.4,1.5-8.9
				c1.2-1.8,2.8-3.5,4-5.4c0.6-0.9,2.2-8.4-0.1-6.1c-3,3.1-8-9-8.4-10.9c0.6,3.2,5.4,10,8.9,9.3c2.4-0.5,10.8-7.3,4.9-9.1
				c-0.9-0.3-4.7-2.7-3.9-3.9c1.1-1.8,4.7,3.6,5.1,4.4c0.2,0.4,3.4,0.2,3.9,0.2c3.5-0.6,1.7,2.3,4.1,2.9c1,0.2,4.7,12,5.7,10.1
				c1.8-3.4,2.7-7.9,5.9-9.9c3.4-2.1,2.8,2.1,4.2,3.6c1.1,1.3,4.1,2.9,3.1,5.3c-0.9,1.8,3.2,6.2,3.8,5.3c1.5-2.1-3-4.3-2.3-7
				c-0.1,0.5,5.4,3.9,5.7-1.1c0.1-1.3,1.6-3.7,1-4.9c-0.8-1.5,1.6-1.8,2.6-2.9c2-2,4.5-4.8,3.6-7.9c-0.4-1.3-1.3-2.4-1.5-3.8
				c-0.2-1.4,2-1.5,1.7-2.9c0,0.1,2.1,3.4,2.1,3.4c1.8,0.9,2.4-6.3,2.6-6.8c0.5-1.1,1.7-2.1,2.4-3c-1-2.8-2.1-5.6-3.4-8.3
				c-4.1-8.7-9.8-16.6-16.6-23.3c-0.5,0-9.5-8.1-9.8-4.3c0,0.2-13.5,5-10.2,6.7c-2-1-3.3,0.5-5.8-0.8c0,0-7.4,4-6.8,4.1
				c-1.8-0.4-4.4,0.4-5.8,1.5c-0.9,0.6-1-0.6-1.6-0.9c-1.5-0.7-1.1,1.2-2,1.9c0.2-0.2-6.1-3.6-6.6-4.1c-2.2-2-4.3-1.2-6.7,0.2
				c-2.2,1.4-3.3,5.2-5.4,6.2c-1.3,0.6-3.2,2.7-3.1,4.3c0.1,2,0.8,5.2,1.7,6.8c0.5,0.8-3.9,3-4.6,3.7c1-2.9-2.5-6.1-1.7-8.1
				c0,0.1-1.4-0.8-1.7,0.6c-0.2,1-0.7,2.5-0.1,3.5c0.6,1,0.2,4.5-0.9,5.3c0.6-0.4,3.7,0.7,4,0.5c-1.1,0.8-2.5,0.7-3.5,2.1
				c-0.2,0.2,2.4,2.5,2.3,3.4c0,1.5-3.1,0.2-4.1,1.3c-1.3,1.4-1.2,3.1-0.8,4.9c0.2,1.2,4.3,1.7,4.9,0.9c1.2-1.4,2.4-3.4,3.4-5
				c0.8-1.3,2.9-1.1,3,0.5c0.1,3,1.3,1.2,1.8,0.1c0.9-1.7,3.4,4.6,2.2,4.3c2.4,0.7,2.4-5,0.7-6.1c2.5,1.6,3.4,8,6,8.1
				c0.9,0-1.3-4.9,0.2-4.9c-1.2,0,1.1,3.9,1.8,4.3c0,0,4.8,0.4,4.7,0.1c0.6,3.1-2.8,3.1-4.7,2.9c-2.1-0.2-4.8,1.2-6.6,0.3
				c-1.1-0.5-4.7-2.1-4.2-3.8c0.5-1.7-5.4-0.3-6.3-0.1c-2.5,0.4-4.1,0.7-6.3,1.7c-1.1,0.5-1.7,4.4-2.4,5.7c-2.8,5.4-4.9,9-2.4,15.4
				c0.8,1.9,2.7,4.2,4.9,4.5c2.9,0.4,3.7-1.6,5.9-1.4c5.3,0.5,4.3,3.3,5.2,7.5c0.5,2.2,1.7,4.5,2,6.7c0.4,3.5-1,5.3,0.5,8.8
				C116.6,125.5,117.3,136.5,123.6,132.8C124.6,132.2,122.6,133.4,123.6,132.8z"/>
			<g>
				<path fill="#384F66" d="M121.3,135L121.3,135c-4.2,0-5.5-5.4-6.5-9.3c-0.3-1.1-0.5-2.1-0.8-2.7c-1.1-2.5-0.9-4.3-0.7-6
					c0.1-1,0.2-2,0.1-3.2c-0.1-1.1-0.5-2.2-1-3.4c-0.4-1-0.8-2.1-1-3.2c-0.2-0.9-0.3-1.7-0.4-2.5c-0.4-2.8-0.5-3.6-3.5-3.9l-0.2,0
					c-0.5,0-0.8,0.2-1.4,0.5c-1,0.5-2.2,1.2-4.3,0.9c-2.8-0.4-5.1-3.1-6-5.4c-2.7-6.7-0.5-10.8,2.2-16l0.3-0.5
					c0.2-0.3,0.4-1.1,0.6-1.8c0.7-2.4,1.2-3.9,2.4-4.5c-0.8-0.4-1.4-0.9-1.5-1.7c-0.4-1.9-0.6-4.2,1.2-6.2c0.9-1,2.3-1,3.1-1
					l0.4,1.4v-1c-0.3-0.4-0.7-0.9-1-1.2c-0.9-1-1.6-1.9-0.9-2.9c0.3-0.5,0.7-0.8,1.1-1.1l-1.2-1.8c0.5-0.5,0.8-2.8,0.5-3.4
					c-0.8-1.3-0.4-2.9-0.1-4.1l0.1-0.4c0.2-1.2,1.1-1.9,2.2-1.9c0.5,0,1,0.2,1.2,0.3l-0.3,1.3L107,51c-0.1,0.3,0.4,1.5,0.7,2.2
					c0.4,0.8,0.8,1.7,1,2.6c0.5-0.4,1.2-0.8,1.6-1.1c-0.8-1.8-1.4-4.7-1.6-6.6c-0.1-2.3,2.3-4.9,4-5.7c0.7-0.3,1.4-1.4,2.1-2.5
					c0.9-1.3,1.8-2.7,3.1-3.6c1.3-0.8,2.9-1.6,4.6-1.6c1.4,0,2.6,0.5,3.8,1.6c0.2,0.2,1.6,1,2.7,1.6c1.1,0.6,1.9,1.1,2.5,1.5
					c0.3-0.6,0.8-1.4,1.9-1.4c0.4,0,0.8,0.1,1.2,0.3c0.3,0.2,0.6,0.4,0.7,0.6c1.6-1,3.7-1.5,5.5-1.4c0.9-0.6,2.6-1.6,5.7-3.3l-0.5-2
					l2.8,1.5c1.2,0.6,1.8,0.4,2.4,0.4c0.3,0,0.7-0.1,1-0.1c0.9-1.5,3.8-3.1,10.1-5.7c0.2-0.1,0.4-0.1,0.5-0.2
					c0.4-0.9,1.2-1.4,2.2-1.4c2,0,5,2.1,8.1,4.5c0.5,0.4,0.9,0.7,1.1,0.8h0.2l0.4,0.4c7,6.9,12.7,14.9,16.9,23.7
					c1.3,2.7,2.4,5.5,3.5,8.4l0.2,0.7l-0.4,0.6c-0.3,0.4-0.7,0.9-1.1,1.4c-0.5,0.5-0.9,1-1.1,1.5c0,0,0,0.4-0.1,0.8
					c-0.5,3.1-1.1,6.9-3.5,6.9c-0.3,0-0.6-0.1-0.9-0.2c-0.4-0.2-1-1.1-1.6-2.1c-0.1,0.1-0.2,0.1-0.3,0.2c0.1,0.5,0.4,1,0.6,1.6
					c0.3,0.6,0.6,1.2,0.8,1.9c1.2,4.1-2.4,7.7-4,9.3c-0.5,0.5-1.1,0.8-1.6,1.1c-0.2,0.1-0.4,0.2-0.6,0.3c0.5,1.3,0,2.7-0.5,4
					c-0.2,0.5-0.4,1.1-0.4,1.4c-0.2,3.7-2.9,4-3.7,4c-0.3,0-0.6,0-0.8-0.1c0.9,1.3,2.1,3.1,0.8,4.9c-0.3,0.4-0.8,0.7-1.4,0.7
					c-2,0-4.1-3.3-4.1-3.4c-1-1.6-1.3-3-0.7-4.1c0.3-0.7-0.3-1.4-1.7-2.6c-0.4-0.4-0.9-0.7-1.1-1.1c-0.6-0.7-0.9-1.6-1.2-2.5
					c-0.1-0.4-0.3-1-0.5-1.3c0,0-0.3,0.1-0.7,0.4c-1.9,1.2-2.9,3.6-4,6.2c-0.4,1.1-0.9,2.1-1.4,3.1c-0.3,0.6-0.9,1-1.5,1
					c-1.5,0-2.3-1.7-4.4-6.6c-0.6-1.4-1.4-3.2-1.8-3.9c-1.5-0.5-1.9-1.7-2.2-2.4c0-0.1-0.1-0.3-0.2-0.4c0,0-0.1,0-0.2,0
					c-0.2,0-0.4,0-0.6,0.1c-0.3,0.1-1.1,0.1-1.8,0.1c0,0,0,0.1,0,0.1c-0.1,2.9-4,6.3-6.6,7.6c0.9,1.8-0.4,6.8-1,7.7
					c-0.7,1-1.4,2-2.2,2.9c-0.6,0.8-1.3,1.6-1.8,2.5c-0.9,1.3-1,3.2-1,5.1c0,1.1-0.1,2.2-0.3,3.3c-0.3,1.9-1,3.3-1.7,4.7
					c-0.3,0.7-0.7,1.4-1,2.2c-1.3,3.4-3.7,9.6-7.5,12.1l0,0l-0.2,0.1c0,0-0.1,0-0.1,0.1l0,0l0,0l0,0l0,0c0,0-0.1,0-0.1,0.1l-0.2,0.1
					l0,0c-0.1,0-0.1,0.1-0.2,0.1C122.9,134.8,122.1,135,121.3,135z M107.3,97.9c0.2,0,0.3,0,0.5,0c5.3,0.5,5.7,3.5,6.1,6.4
					c0.1,0.7,0.2,1.5,0.4,2.3c0.2,0.9,0.5,1.8,0.9,2.8c0.5,1.3,1,2.7,1.1,4.1c0.2,1.5,0,2.7-0.1,3.8c-0.2,1.6-0.3,2.8,0.5,4.6
					c0.3,0.8,0.6,1.9,0.9,3.1c0.7,2.8,1.8,7.1,3.7,7.1l0,0c0.4,0,0.9-0.2,1.5-0.5l0.2-0.1c3.1-1.9,5.4-7.9,6.5-10.8
					c0.3-0.8,0.7-1.6,1-2.4c0.6-1.3,1.2-2.5,1.5-4c0.2-0.9,0.2-1.8,0.2-2.9c0.1-2.2,0.2-4.6,1.5-6.6c0.6-0.9,1.3-1.8,2-2.6
					c0.7-0.9,1.4-1.8,2-2.7c0.2-0.5,0.6-2.2,0.8-3.5c-0.3,0.1-0.6,0.1-0.8,0.1c0,0,0,0,0,0c-4,0-7.5-9-8.2-10.9
					c-0.2-0.6-0.4-1.2-0.5-1.7l2.8-0.6c0.1,0.3,0.2,0.7,0.4,1.3c1.3,3.2,4.9,7.3,6.8,6.9c1.4-0.3,5.8-3.8,5.9-5.6c0-0.1,0-0.5-1-0.8
					c-0.9-0.3-4.1-2.2-4.9-4.1c-0.3-0.7-0.2-1.4,0.2-2c0.4-0.7,1.1-1,1.8-1c2.2,0,4.6,3.6,5.4,5c0.6,0.1,2.5,0,2.7-0.1
					c0.4-0.1,0.7-0.1,1-0.1c2.3,0,2.8,1.6,3.1,2.3c0.2,0.6,0.2,0.6,0.5,0.7c1.1,0.3,1.6,1.3,3.3,5.4c0.4,1.1,1.1,2.6,1.6,3.7
					c0.2-0.4,0.3-0.8,0.5-1.1c1.2-2.9,2.4-5.8,5.1-7.5c0.9-0.5,1.6-0.8,2.3-0.8c2.1,0,2.7,2,3.1,3.3c0.2,0.5,0.4,1.2,0.6,1.4
					c0.2,0.3,0.5,0.5,0.9,0.8c1,0.8,2.4,2.1,2.7,3.7l1.3,0.3c0.1-0.6-0.1-1-0.2-1.1c0.2,0.2,1.4,0.9,2.3,0.9c0.3,0,0.7,0,0.8-1.3
					c0-0.7,0.3-1.4,0.6-2.2c0.2-0.6,0.6-1.6,0.5-1.9c-1.2-2.2,1.1-3.4,1.9-3.9c0.4-0.2,0.8-0.4,0.9-0.6c1.9-1.8,3.9-4.3,3.2-6.5
					c-0.1-0.4-0.4-0.9-0.6-1.4c-0.4-0.8-0.8-1.6-0.9-2.6c-0.2-1.5,0.8-2.3,1.4-2.8c0.1-0.1,0.3-0.3,0.4-0.3c0,0-0.1,0.2,0,0.2
					l1.5-0.3l1.1-0.6c0.1,0.2,0.7,1.1,1.2,1.9c0.2-0.8,0.5-2,0.7-3.6c0.2-1,0.2-1.3,0.3-1.6c0.4-0.8,1-1.5,1.6-2.2
					c0.2-0.2,0.3-0.3,0.4-0.5c-0.9-2.5-1.9-5-3.1-7.4c-4-8.5-9.5-16.1-16.2-22.7c-0.4-0.2-0.8-0.6-1.7-1.2c-1.3-1-4.6-3.5-6-3.8
					c-0.2,0.6-0.7,0.8-2,1.4c-7,2.8-8.5,4-8.7,4.5c0.1-0.2,0-0.8-0.2-0.9l-1.2,2.6c-0.5-0.3-1.1-0.2-1.8-0.2
					c-1.1,0.1-2.2,0.1-3.3-0.4c-3.6,2-5.5,3.1-5.9,3.4l-0.8-1l-0.1,0l-0.3,1.4c-1.4-0.3-3.5,0.3-4.7,1.2c-1,0.8-2.2,0.4-2.7-0.1
					c-0.1,0.2-0.2,0.4-0.3,0.5l0,0.2l-0.6,0.4c0,0,0,0,0,0l0,0c0,0,0,0,0,0l-0.9-1.1l-1,1c-0.3-0.3-2.2-1.3-3.4-2
					c-2.3-1.3-2.9-1.7-3.2-1.9c-0.8-0.7-1.4-0.8-1.8-0.8c-1,0-2.1,0.6-3.1,1.2c-0.8,0.5-1.5,1.6-2.2,2.7c-0.9,1.4-1.9,2.9-3.3,3.6
					c-1,0.4-2.3,2.2-2.3,2.9c0.1,1.9,0.8,4.8,1.6,6.1c1,1.7-1.1,3-3.5,4.6c-0.5,0.3-1.2,0.8-1.4,0.9L106,58c0.3-0.8,0-1.8-0.5-2.8
					c0.1,1,0,2.2-0.3,3.2c0.2,0,0.4,0.1,0.6,0.1c0.4,0.1,0.7,0.2,1,0.2c0,0,0,0,0,0c-0.1,0-0.4,0-0.7,0.2l1.7,2.3
					c0,0-0.1,0.1-0.1,0.1l-0.3,0.2c-0.5,0.3-0.9,0.4-1.4,0.6c-0.2,0.1-0.5,0.2-0.6,0.3c1.1,1.3,1.9,2.3,1.8,3.2
					c0,1.4-1.1,2.2-3.1,2.2l-0.4,0c-0.6,0-0.9,0-1,0.1c-0.7,0.8-0.8,1.7-0.5,3.4c0.3,0.2,1.2,0.4,2.1,0.4c0.3,0,0.5,0,0.6,0
					c1-1.3,2.2-3.1,3.2-4.7c0.6-1,1.6-1.5,2.8-1.5c1.2,0,2.1,0.6,2.6,1.5c0.8-0.7,2.1-0.3,2.9,0.7l1.5-2.4c0,0,0,0,0,0v0h0
					c1.5,0.9,2.4,2.8,3.2,4.7c0.1,0.2,0.2,0.4,0.3,0.6c0-0.6,0.1-1.1,0.5-1.6c0.4-0.4,0.9-0.7,1.5-0.7v2.8c0,0,0,0,0,0
					c0.5,0,0.8-0.4,0.9-0.6c0,0.1,0,0.1,0,0.2c0.2-0.3,0.2-0.5,0.2-0.6c0.1,0.5,0.9,1.9,1.3,2.6c0.9,0.1,3,0.2,3.6,0.1
					c-0.1,0-0.5,0.2-0.7,0.5l1.1,0.8l1.4-0.3c0,0,0,0,0,0l0.1,0.6l0,0.1c0.1,1.2-0.3,2-0.7,2.5c-0.8,1-2.3,1.5-4.3,1.5
					c-0.5,0-0.9,0-1.3-0.1c-0.7-0.1-1.5,0.1-2.4,0.3c-1.6,0.3-3.4,0.5-4.7-0.1l-0.4-0.2c-1.5-0.7-4.4-2.1-4.6-4.3
					c-1.2,0-3,0.4-3.9,0.6c-0.3,0.1-0.5,0.1-0.6,0.1c-2.5,0.4-3.9,0.7-5.9,1.5c-0.3,0.4-0.8,1.9-1,2.8c-0.3,0.9-0.5,1.7-0.8,2.3
					l-0.3,0.5c-2.6,5.1-4.2,8.1-2.1,13.7c0.6,1.6,2.2,3.4,3.7,3.6c1.1,0.2,1.7-0.1,2.5-0.6C105.2,98.4,106.1,97.9,107.3,97.9z
					 M115.1,72.1c0.1,0.1,0.1,0.1,0.2,0.2c0.4,0.5,0.5,1.1,0.3,1.7c0.1,0.1,0.6,0.7,3,1.9l0.4,0.2c0.6,0.3,1.7,0.1,2.9-0.1
					c0.1,0,0.3-0.1,0.4-0.1c-1.5-0.4-2.5-1.8-3.3-3.4c-0.6,1.2-1.7,1.8-2.9,1.5l-0.1,0c-0.1,0-0.2,0-0.2-0.1l0,0l0.4-1.4l0.1-1.4
					C115.6,71.2,115.2,71.7,115.1,72.1z M124.6,75.7c0.2,0,0.4,0,0.5,0c0.6,0.1,1.4,0.1,2,0c-0.8,0-1.5-0.1-1.9-0.1l-0.7,0l-0.2-0.1
					c0,0,0,0-0.1,0.1l-0.2,0.2C124.2,75.7,124.4,75.7,124.6,75.7z M112.8,71.4c0.7,0,1.7,0.1,2.3,0.7c-0.1-0.4-0.3-1.2-0.6-1.8
					c-0.5,0.7-1.1,1-1.7,1c-1.2,0-1.9-1-2-3c0,0.1-0.2,0.1-0.4,0.3c-0.7,1.1-1.5,2.4-2.3,3.5l0.1,0
					C109.3,71.8,111.3,71.4,112.8,71.4z"/>
			</g>
		</g>
		<g>
			<path fill="#DCE6F0" d="M190.6,95.9c0.1,0.1,4.4-2.3,0.8-3.9c-0.6-0.3-1.1,1.3-1.5,1.6C188.1,94.6,190.2,94.9,190.6,95.9
				C190.7,96.1,190.5,95.7,190.6,95.9z"/>
			<g>
				<path fill="#384F66" d="M191.4,97.4l-1.7,0l-0.4-0.9l0,0l0,0l0.5-0.3l-0.5,0.2c0,0-0.2-0.2-0.4-0.3c-0.5-0.4-1.3-1-1.2-2
					c0.1-1,0.8-1.5,1.3-1.8c0-0.1,0.1-0.2,0.1-0.2c0.4-0.6,0.9-1.6,2.1-1.6h0.3l0.4,0.2c2.4,1.1,2.4,2.7,2.2,3.4
					c-0.3,1.2-1.5,2.4-2.5,2.9L191.4,97.4z"/>
			</g>
		</g>
		<g>
			<path fill="#DCE6F0" d="M189.4,104.4c0.1,0-1.3-3.4-2.5,0.4c-1,2.9,2.5,1.6,2.5,2.1C189.4,106.5,188.5,104.8,189.4,104.4
				C189.7,104.3,189.2,104.5,189.4,104.4z"/>
			<g>
				<path fill="#384F66" d="M188.3,108.3c-0.4,0-1.8,0-2.5-1c-0.5-0.7-0.6-1.7-0.2-2.8c0.2-0.7,0.9-2.8,2.7-2.8
					c0.5,0,1.3,0.2,1.9,1.1c0.1,0.1,0.1,0.2,0.2,0.2h0.4l0.4,2.3l-0.7,0.3c0,0.2,0.1,0.3,0.1,0.4c0.1,0.4,0.2,0.7,0.2,1l0,0h-2.8
					h1.4l-1.4,0.1c0,0,0,0,0,0c0,0.7,0.6,1.2,1.1,1.2L188.3,108.3z"/>
			</g>
		</g>
		<g>
			<path fill="#DCE6F0" d="M186.1,102.9c1-7.6-5.4-1.2-5.9,2.2c-0.2,1.3,2.8,2.6,3.9,2.2C185.6,106.8,186,104.2,186.1,102.9
				C186.2,102.4,186,103.5,186.1,102.9z"/>
			<g>
				<path fill="#384F66" d="M183.7,108.8L183.7,108.8c-1.3,0-3.2-0.7-4.2-1.9c-0.7-0.8-0.7-1.5-0.7-2c0.4-2.6,3.6-7,6.2-7
					c0.7,0,1.3,0.3,1.8,0.8c0.7,0.7,0.9,1.9,0.8,3.6l0,0l-0.1,0.8c0,0.1,0,0.3-0.1,0.4l-0.1,0.9c-0.3,1.6-0.9,3.7-2.7,4.3
					C184.3,108.8,184,108.8,183.7,108.8z M181.7,105.1c0.3,0.3,1.3,0.8,2,0.8l0.1,0c0,0,0.6-0.3,0.9-3l0.1-0.4
					c0.1-0.9,0.1-1.4,0-1.7C183.8,101.4,182,103.6,181.7,105.1z"/>
			</g>
		</g>
		<g>
			<path fill="#DCE6F0" d="M179.4,108.9c-0.8-0.3-1.5-0.1-2.1,0.6c-0.2,0.6,6.1,1.2,6.4,1.5C182.6,110,180.8,109.4,179.4,108.9z"/>
			<g>
				<path fill="#384F66" d="M183.3,112.2c-0.2-0.1-1.1-0.2-1.8-0.3c-3.7-0.6-4.7-0.8-5.3-1.6l-0.3-0.5l0.2-1l0.2-0.3
					c0.9-1,2.2-1.4,3.6-1l0.3,0.1c1.4,0.5,3.1,1.2,4.4,2.1c0,0,0,0,0,0l-0.8,1.2L183.3,112.2z"/>
			</g>
		</g>
		<g>
			<path fill="#DCE6F0" d="M186.8,85.2c0.3-0.4-0.5-2.2-0.8-1.9C185.7,83.8,186,86.4,186.8,85.2C187.1,84.8,186.5,85.6,186.8,85.2z"
				/>
			<g>
				<path fill="#384F66" d="M186.4,86.9L186.4,86.9c-0.7,0-1.3-0.4-1.6-1.1c-0.3-0.7-0.6-2.5,0.1-3.4l0.4-0.5l0.7,0
					c0.7,0,1.2,0.4,1.7,1.3c0.1,0.1,0.2,0.3,0.2,0.6h0.3l0,1.4c0,0.4-0.2,0.9-0.6,1.3C187.3,86.8,186.8,86.9,186.4,86.9z"/>
			</g>
		</g>
		<g>
			<path fill="#DCE6F0" d="M189,89.3c0.8-1.9-3.6-0.7-1.4,1.3C188.3,90.4,188.8,90,189,89.3C189.2,88.8,188.8,89.8,189,89.3z"/>
			<g>
				<path fill="#384F66" d="M187.3,92.1l-0.6-0.5c-1.4-1.2-1.2-2.5-1-3c0.4-1.2,1.7-1.8,2.7-1.8c0.7,0,1.4,0.3,1.7,0.8
					c0.1,0.2,0.3,0.6,0.3,1l0.1,0.2l-0.3,0.8c-0.1,0.2-0.1,0.3-0.2,0.5l-0.3,0.4c-0.4,0.6-1.1,1-1.9,1.2L187.3,92.1z M189,89.3
					L189,89.3L189,89.3L189,89.3L189,89.3l-1.3-0.5l0,0l0,0c0,0,0,0,0,0L189,89.3z"/>
			</g>
		</g>
		<g>
			<path fill="#DCE6F0" d="M193.1,103.9c0.9,0.7,3,0.4,3.1-0.9C195.3,102.4,193,102.5,193.1,103.9z"/>
			<g>
				<path fill="#384F66" d="M194.4,105.7L194.4,105.7c-0.8,0-1.5-0.2-2.1-0.6l-0.6-0.4l0-0.7c0-0.7,0.2-1.3,0.7-1.8
					c0.6-0.6,1.5-0.9,2.5-0.9c0.8,0,1.6,0.2,2.2,0.6l0.7,0.4l0,0.8C197.6,104.6,196.2,105.7,194.4,105.7z"/>
			</g>
		</g>
		<g>
			<path fill="#DCE6F0" d="M192.6,74.9c-0.4,0.3-1.2,2.3-0.7,2.7c0.6,0.4,1.9-2.3,2.9-1.6c2.4,1.7,1.6-3.3,1.5-3.7
				C195.1,73.2,193.9,74,192.6,74.9C192.2,75.2,193.1,74.6,192.6,74.9z"/>
			<g>
				<path fill="#384F66" d="M192.1,79.1h-0.4l-0.5-0.3c-0.3-0.2-0.8-0.7-0.8-1.6c0-0.7,0.2-1.6,0.6-2.4l-0.1-0.4l0.9-0.6
					c1.2-0.9,2.5-1.7,3.7-2.6l1.7-1.2l0.5,2.1c0,0,0.8,3.5-0.4,5.1c-0.7,0.8-1.8,1-2.8,0.5c-0.2,0.1-0.3,0.3-0.5,0.5
					C193.5,78.5,192.9,79.1,192.1,79.1z"/>
			</g>
		</g>
		<g>
			<path fill="#DCE6F0" d="M171.1,99.9C171.1,99.9,171.1,99.9,171.1,99.9C170.9,99.8,170.9,99.8,171.1,99.9z"/>
			<g>
				<polygon fill="#384F66" points="171.1,101.3 169.7,101.3 169.7,100.6 169.4,100.4 169.6,99.3 169.9,98.4 171.4,98.4 
					175.5,101.2 				"/>
			</g>
		</g>
		<g>
			<path fill="#DCE6F0" d="M177,105.3c-0.7-1.6-2.4-2.6-3.3-4.2c-1.1-1.9-1.8-0.8-2.6-1.3c1.9,1.3,2.6,2.8,3.6,4.9
				C175.5,106.3,178.2,108.1,177,105.3C176.6,104.6,177.3,106.1,177,105.3z"/>
			<g>
				<path fill="#384F66" d="M177,108.2L177,108.2c-1.3,0-3-1.6-3.5-2.8c-0.9-1.9-1.6-3.2-3.2-4.4l1.6-2.3c-0.1-0.1-0.2-0.1-0.2-0.1
					c0.3,0,0.4,0,0.5,0c1.4,0,2.2,1.1,2.7,1.8c0.3,0.5,0.8,1.1,1.3,1.6c0.6,0.6,1.3,1.4,1.8,2.3c0.2,0.3,0.3,0.6,0.4,0.8
					c0.3,0.8,0.5,1.6,0,2.3C178.1,107.9,177.6,108.2,177,108.2z"/>
			</g>
		</g>
		<g>
			<path fill="#DCE6F0" d="M160.2,96.8c-0.3,0.6,1.6,1.8,1.7,1.6C162.3,97.5,161,95,160.2,96.8C159.9,97.4,160.5,96.2,160.2,96.8z"
				/>
			<g>
				<path fill="#384F66" d="M161.8,99.8c-1,0-2.2-1-2.7-1.6c-0.1-0.2-0.2-0.3-0.3-0.5l-0.4-0.6l0.4-0.9l0,0l0,0h0l0.4-0.8l0.2,0
					c0.5-0.5,1-0.6,1.4-0.6c0.8,0,1.5,0.4,1.9,1.2c0.5,0.8,0.8,2.1,0.3,3l-0.4,0.8L161.8,99.8z"/>
			</g>
		</g>
		<g>
			<path fill="#DCE6F0" d="M135.6,125.1c0.4,3.4,3.5-2.1,3.5-3.5c0-0.8,0.7-1.6,0.8-2.4c0.3-1.5-0.7-3.1-0.8-4.6
				c0,0.9-3.2,3.1-3.6,4.5C135.1,121.1,135.4,123,135.6,125.1C135.7,125.7,135.5,124.5,135.6,125.1z"/>
			<g>
				<path fill="#384F66" d="M136.2,127.6c-0.3,0-1.1-0.1-1.6-0.9h-0.3l-0.2-2.1c-0.2-1.9-0.4-3.8,0.1-5.9c0.3-1.1,1.3-2.1,2.4-3.2
					c0.4-0.4,1.1-1.1,1.2-1.3c0,0-0.1,0.1-0.1,0.4l2.8-0.1l-1,0.1l1,0l-0.5,0l0.5,0c0,0.4,0.2,1,0.4,1.6c0.3,1,0.6,2.2,0.4,3.4
					c-0.1,0.5-0.3,1-0.5,1.4c-0.1,0.3-0.3,0.6-0.3,0.8C140.5,122.9,138.5,127.6,136.2,127.6z M136.8,123.5L136.8,123.5
					c0.4-0.7,0.8-1.6,0.9-2c0-0.8,0.3-1.4,0.6-2c0.1-0.3,0.3-0.5,0.3-0.7c0.1-0.3,0-0.7-0.1-1.2c-0.5,0.5-1.4,1.4-1.5,1.7
					C136.6,120.8,136.7,122,136.8,123.5z"/>
			</g>
		</g>
		<g>
			<path fill="#DCE6F0" d="M105.4,22.3c-0.4,0.1-4.7-1-4.7-0.8c0-0.6,2.2-2.4,0.2-2.4c-1.2,0-2.9,0-4-0.3c-1.3-0.4-8.9-0.1-9.6,1.4
				c-1,2-5.8,1.6-8.1,2.3c-1.5,0.4-3,1-3.7,2.6c-0.9,2-2.5,1-3.8,2.3c-0.7,0.7,3.5,1.3,3.5,1.3c-1.4-0.5-3.7,2-0.5,2.3
				c2.7,0.3,4.7,0.2,5,3.5c0,0.2,1.8,4.2,1.6,4.1c-0.9-0.3,0.3,6,0.4,6.3c1.9,6.3,4.9,5.2,6.6-0.7c0.3-0.9,4.3-2.5,5.6-3.1
				c1.2-0.6,1.6-1.3,2.3-2.3c1.4-2-0.7-0.2-0.5-1.9c0-0.1,4.6-0.2,3.8-0.8c-0.7-0.5,1.8-3.2,1.5-4.3c-0.4-1.5,1-4.3,1.3-5.6
				C102.4,25.4,105.6,22.3,105.4,22.3C105,22.4,105.9,22.3,105.4,22.3z"/>
			<g>
				<path fill="#384F66" d="M84.8,50.6c-1.9,0-3.4-1.8-4.5-5.3c0-0.1-1.2-5-0.6-7c-0.2-0.6-0.5-1.4-0.8-1.9
					c-0.6-1.5-0.7-1.6-0.7-1.9c-0.1-1.8-0.6-1.9-3.1-2.1l-0.6-0.1c-2.8-0.3-2.9-2.1-2.9-2.5c0-0.2,0-0.4,0.1-0.6
					c-0.9-0.3-1.3-0.7-1.5-1.3c-0.2-0.6,0-1.2,0.4-1.7c0.8-0.9,1.8-1.1,2.5-1.2c0.7-0.2,0.8-0.2,1-0.7c0.9-2.1,2.8-2.8,4.6-3.3
					c0.9-0.2,1.9-0.3,3-0.4c1.4-0.1,3.9-0.4,4.2-1c1-2.1,6.5-2.3,8.8-2.3c1.7,0,2.3,0.2,2.4,0.2c0.8,0.2,2.1,0.3,3.1,0.3l0.5,0
					c1,0,1.7,0.4,2.1,1.1c0.3,0.6,0.2,1.2,0,1.7c0.1,0,0.1,0,0.2,0c0.7,0.1,1.9,0.4,2.2,0.4l0,0v0l0.9-0.1l0,0.1l0.6,0l0.2,2.7
					l-0.9,0.1c-0.1,0.1-0.2,0.3-0.4,0.4c-0.5,0.6-2,2.1-2.2,2.6c-0.1,0.3-0.3,0.9-0.5,1.5c-0.3,0.9-0.9,2.7-0.8,3.3
					c0.3,1.1-0.4,2.3-1,3.4c-0.1,0.2-0.2,0.4-0.3,0.6l0.1,0.1l-0.2,1.1c-0.3,1-1.2,1.3-2.8,1.4c-0.1,0.6-0.4,1.1-0.7,1.5
					c-0.8,1.2-1.4,2.1-2.8,2.8c-0.3,0.1-0.7,0.3-1.2,0.6c-0.9,0.4-3.1,1.4-3.7,1.8C88.1,49.5,86.1,50.6,84.8,50.6z M82.3,39.5
					c0,1.2,0.5,4.2,0.7,5c0.8,2.5,1.6,3.2,1.7,3.2c0.2,0,1.2-0.8,2.2-4c0.3-1.1,1.7-1.9,5.2-3.4c0.5-0.2,0.9-0.4,1.1-0.5
					c0.7-0.3,1-0.7,1.4-1.4c-0.4-0.4-0.5-1-0.5-1.7c0.1-1.2,1.2-1.3,2.1-1.4c0.4,0,1.1-0.1,1.7-0.2c0.2-0.6,0.5-1.2,0.8-1.7
					c0.2-0.4,0.6-1.1,0.7-1.4c-0.3-1.4,0.3-3.2,0.9-4.8c0.2-0.5,0.4-1,0.4-1.3c0.1-0.6,0.7-1.4,1.8-2.6c0,0-0.1,0-0.1,0
					c-0.8-0.2-1.6-0.3-1.9-0.4l0.1-1.4l-1.5,0c0,0,0,0,0,0l0-0.9c-1,0-2-0.1-2.9-0.4c-0.1,0-0.6-0.1-1.6-0.1c-2.8,0-5.6,0.5-6.3,0.9
					c-1.1,2-3.9,2.2-6.4,2.5c-1,0.1-1.9,0.2-2.5,0.4c-1.4,0.4-2.4,0.8-2.8,1.8c-0.4,0.8-0.8,1.3-1.3,1.6c0.1,0,0.2,0.1,0.3,0.1l0,0
					l-0.5,1.3l-0.2,0.9l0.4,0c2.4,0.2,5.3,0.5,5.7,4.6c0.1,0.2,0.3,0.7,0.5,1.2c1.3,3.1,1.4,3.3,0.9,4L82.3,39.5z"/>
			</g>
		</g>
		<g>
			<path fill="#DCE6F0" d="M116,23.4c-2-0.7-4.2,1.5-3.5,3.4c0.4,1.3,2.3,0.3,2.3,0.6c0.1,0.7-1,2.3,0.3,2.5
				c0.8,0.1,1.1,1.8,1.9,0.6c1.1-1.6,0.7-2.4,3.1-1.7c0.5,0.2,1.1-2.7-0.9-2.9C117.2,25.7,117.3,23.9,116,23.4
				C115.5,23.2,116.6,23.6,116,23.4z"/>
			<g>
				<path fill="#384F66" d="M116.4,32.4c-0.9,0-1.4-0.6-1.7-0.9c0,0-0.1-0.1-0.1-0.1c-0.7-0.2-1.1-0.6-1.3-0.9
					c-0.3-0.5-0.4-1.1-0.3-1.6c-0.9-0.2-1.6-0.7-1.9-1.6c-0.4-1.2-0.2-2.5,0.6-3.5c1-1.4,2.7-2.1,4.3-1.8c0.2,0,0.6,0.1,0.9,0.3
					c0.7,0.4,1.1,1,1.4,1.4c0.4,0.6,0.5,0.7,0.9,0.8c1.7,0.2,2.8,1.5,2.7,3.4c-0.1,1.4-0.8,2.4-1.9,2.4l0,0l-0.4-0.1
					c-0.3-0.1-0.6-0.2-0.7-0.2c0,0.1-0.1,0.2-0.1,0.3c-0.2,0.3-0.4,0.7-0.6,1.1C117.7,32,117.1,32.4,116.4,32.4z M116,28.8
					c0.1,0,0.2,0.1,0.2,0.2c0,0,0,0,0,0c0.3-0.6,0.8-1.6,2-1.8c-1.3-0.4-1.9-1.3-2.3-1.9c-0.1-0.2-0.3-0.5-0.4-0.6l0,0
					c-0.5-0.2-1.1,0.1-1.5,0.6c-0.1,0.1-0.2,0.4-0.3,0.7c0.1,0,0.2,0,0.3,0c0.2,0,0.4-0.1,0.6-0.1h1.2l0.4,1.2
					C116.3,27.7,116.2,28.3,116,28.8C116,28.8,116,28.8,116,28.8z"/>
			</g>
		</g>
		<g>
			<path fill="#DCE6F0" d="M121.7,24.6c1,0,2-0.4,2.7-1.1c0,0-7-2.1-6.9-0.6C117.6,23.6,121.1,24.5,121.7,24.6
				C122.9,24.8,120.6,24.4,121.7,24.6z"/>
			<g>
				<path fill="#384F66" d="M123.4,26.1l-1.3,0c0,0-0.1,0-0.2,0v0l-0.1,0c-0.1,0-0.1,0-0.2,0l0-0.1l0,0.1c0,0,0,0,0,0l0,0
					c0,0-0.1,0-0.1,0l-0.2,0c-2.3-0.4-4.9-1.3-5-2.9c0-0.5,0.1-1,0.5-1.3c0.6-0.6,1.5-0.7,2.1-0.7c0.1,0,6.7,0.4,7.1,2.2L126,24
					l-0.6,0.6c-0.6,0.5-1.3,0.9-2,1.2L123.4,26.1z"/>
			</g>
		</g>
		<g>
			<path fill="#DCE6F0" d="M100.8,55.6c0.2,0.1-1.2,2.2,1.2,1.8c1.3-0.2,0.6-2.9-0.1-2.9C101.5,54.9,101.2,55.3,100.8,55.6
				C100.5,55.5,101.1,55.8,100.8,55.6z"/>
			<g>
				<path fill="#384F66" d="M101.4,58.9c-1.1,0-1.6-0.5-1.9-0.9c-0.4-0.5-0.4-1-0.4-1.5l-1-0.4l1.2-1.1l0.2-0.8h0.7
					c0.1-0.2,0.3-0.3,0.4-0.5l0.4-0.6h0.7c1.3,0,2.2,1.5,2.3,2.9c0.1,1.7-0.9,2.6-1.9,2.8C101.9,58.8,101.6,58.9,101.4,58.9z"/>
			</g>
		</g>
		<g>
			<path fill="#DCE6F0" d="M104.2,42.4c-0.6-1-3.6-0.1-4.5-1.2c-0.6-0.7-0.5,2.4-0.5,1.9C98.5,46.6,105.9,45.5,104.2,42.4
				C103.9,42,104.4,42.8,104.2,42.4z"/>
			<g>
				<path fill="#384F66" d="M101.5,46.7C101.4,46.7,101.5,46.7,101.5,46.7c-1.3,0-2.4-0.4-3.1-1.2c-0.4-0.4-0.7-1.2-0.6-2.2
					c0-0.2,0-0.3,0-0.5c0-0.4,0-0.9,0.1-1.2c0.3-1.6,1.3-1.7,1.7-1.7c0.3,0,0.8,0.1,1.2,0.6c0.2,0.1,1,0.1,1.4,0.1
					c0.8,0,1.7,0.1,2.4,0.4h0.4l0.5,0.8l0,0l0,0.1l0,0l0.4,0.7l-0.1,0.1c0.2,0.8,0.1,1.5-0.3,2.2C104.6,46.2,102.8,46.7,101.5,46.7z
					 M99.2,43.2l1.4,0.3c0,0.1,0,0.2,0,0.2c0,0,0.3,0.2,0.9,0.2c0.8,0,1.5-0.4,1.6-0.5c-0.3,0-0.7,0-1-0.1c-0.6,0-1.4,0-2.1-0.2
					L99.2,43.2z"/>
			</g>
		</g>
		<g>
			<path fill="#DCE6F0" d="M142,32.1c0.7-0.7,4.2-1.4,3.4-2.9c-0.3-0.5-3.4,0.8-4,1c-3.4,1.1-6.3,8.8-1.6,7.4
				c0.3-0.1-0.4-2.5-0.5-2.8C139,33.8,141.5,32.6,142,32.1C142.6,31.5,141.4,32.7,142,32.1z"/>
			<g>
				<path fill="#384F66" d="M138.8,39.1L138.8,39.1c-1.5,0-2.6-0.9-2.8-2.4c-0.4-2.6,2-7,5-7.9c0.1,0,0.2-0.1,0.4-0.2
					c1.7-0.6,2.8-1,3.6-1c1,0,1.5,0.6,1.6,0.9c0.3,0.6,0.4,1.2,0.2,1.8c-0.4,1.2-1.8,1.9-3,2.4c-0.3,0.1-0.7,0.3-0.8,0.4
					c0,0-0.1,0.1-0.1,0.1l0,0l0,0c-0.1,0.1-0.3,0.2-0.5,0.3c-0.1,0.1-0.2,0.1-0.3,0.2c-0.3,0.2-0.9,0.6-1.2,0.9
					c0.3,0.9,0.8,2.6,0.4,3.4l-0.3,0.6l-0.7,0.2C139.8,39,139.3,39.1,138.8,39.1z"/>
			</g>
		</g>
		<g>
			<path fill="#DCE6F0" d="M138.8,24.6c1,0.9,1.5-0.4,2.5-0.3C141.4,22.3,138.8,23,138.8,24.6z"/>
			<g>
				<path fill="#384F66" d="M139.5,26.3c-0.6,0-1.2-0.3-1.7-0.7l-0.4-0.4l0-0.5c0-0.8,0.2-1.5,0.8-2c0.6-0.6,1.4-0.9,2.2-0.9
					c1.4,0,2.5,1.1,2.5,2.6l0,1.6l-1.6-0.2c0,0-0.1,0.1-0.2,0.2C140.7,26,140.2,26.3,139.5,26.3z"/>
			</g>
		</g>
		<g>
			<path fill="#DCE6F0" d="M157.5,24.9c0,0.5,4,0.9,3.7,0.1C160.9,23.9,157.6,23.8,157.5,24.9C157.5,25.3,157.6,24.6,157.5,24.9z"/>
			<g>
				<path fill="#384F66" d="M159.9,26.9c-1,0-2-0.1-2.8-0.5l-0.3,0l-0.8-0.9l0.1-0.7c0,0,0,0,0,0h0l0.1-1.3l0.6,0
					c0.5-0.5,1.4-0.8,2.3-0.8c1.3,0,3,0.5,3.4,1.9l0.2,0.7l-0.5,0.8C161.9,26.7,161.2,26.9,159.9,26.9z"/>
			</g>
		</g>
		<g>
			<path fill="#DCE6F0" d="M60.2,44.9c-0.2,0.7-0.1,1.2,0.5,1.6c0.5,0,2.2-2.9,3.1-1.2C63.1,43.9,61.1,44,60.2,44.9
				C59.9,45.1,60.5,44.6,60.2,44.9z"/>
			<g>
				<path fill="#384F66" d="M60.7,47.9l-0.5,0l-0.3-0.2c-0.9-0.6-1.3-1.5-1.2-2.5l-0.2-0.6l0.8-0.7l0,0l0,0c0,0,0,0,0,0l0,0l0.5-0.4
					c1.7-1.1,4-0.7,5.1,0.8c0.1,0.1,0.1,0.2,0.2,0.3l-2.5,1.3c0.1,0.1,0.3,0.3,0.6,0.3c0.1,0,0.2,0,0.2,0c-0.2,0.1-0.6,0.5-0.8,0.7
					C62,47.4,61.5,47.9,60.7,47.9z"/>
			</g>
		</g>
		<g>
			<path fill="#DCE6F0" d="M67.1,89.5c0,1,2.4-0.8,1.1-0.8C67.7,88.8,67.4,89.1,67.1,89.5z"/>
			<g>
				<path fill="#384F66" d="M67.4,91.2L67.4,91.2c-1,0-1.7-0.7-1.7-1.7v-0.4l0.2-0.4c0.5-0.7,1.1-1.2,2-1.4l0.4,0
					c1,0,1.4,0.5,1.6,0.8c0.3,0.5,0.3,1.1,0,1.7C69.4,90.4,68.3,91.2,67.4,91.2z M67.3,89.5h0.9v-0.7c-0.2-0.2-0.5-0.4-0.9-0.4l0,0
					c0,0,0,0-0.1,0c-0.1,0.2-0.2,0.6,0,1C67.3,89.4,67.3,89.5,67.3,89.5z"/>
			</g>
		</g>
		<g>
			<path fill="#DCE6F0" d="M61.9,87.6c-0.6,0.1,2.2,1.9,2.2,1.9c1.3,1,2.7-2.3,0.4-2.1c-1.9,0.1-6.8-5.1-8.5-1.3
				C56.4,85.2,61.2,87.7,61.9,87.6C62.4,87.5,61.3,87.7,61.9,87.6z"/>
			<g>
				<path fill="#384F66" d="M64.6,91.1c-0.5,0-1-0.2-1.4-0.5c-1-0.7-1.7-1.2-2.1-1.6l-0.6,0l0-0.4c-0.3-0.1-0.7-0.3-1.1-0.4
					c-0.8-0.3-2.4-0.9-2.9-0.9c0.2,0,0.6-0.2,0.8-0.6l-2.6-1.2c0.6-1.5,1.8-2.3,3.3-2.3c1.6,0,3.2,0.9,4.6,1.8
					c0.6,0.4,1.6,0.9,1.9,1l0.2,0c0.9,0,1.5,0.4,1.8,0.7c0.4,0.4,0.6,1,0.6,1.7C67.1,89.6,66.1,91.1,64.6,91.1z"/>
			</g>
		</g>
		<g>
			<path fill="#DCE6F0" d="M59.4,89.5c0.5,0.2,1,0.2,1.5,0.1C61.4,89.6,59.4,88.5,59.4,89.5z"/>
			<g>
				<path fill="#384F66" d="M60.3,91.1c-0.5,0-0.9-0.1-1.3-0.2l-1-0.3v-1c0-1.1,0.8-1.8,1.9-1.8c0.8,0,1.9,0.5,2.3,1.2l0.4,0.7
					L61.8,91L61,91C60.8,91,60.6,91.1,60.3,91.1z M59.5,89.5c0,0.4,0.2,0.8,0.4,1c0.5,0,0.9-0.5,0.9-0.9l-0.2-0.1H59.5z"/>
			</g>
		</g>
		<g>
			<path fill="#DCE6F0" d="M60.3,83.4c-0.5-0.2-0.9,1-0.2,1C60.4,84.1,60.5,83.8,60.3,83.4C60,83.3,60.6,83.5,60.3,83.4z"/>
			<g>
				<path fill="#384F66" d="M60.6,85.8h-0.5c-0.5,0-1-0.2-1.4-0.6c-0.3-0.3-0.4-0.8-0.4-1.2c0-0.5,0.2-1.1,0.6-1.5L59,82h1.4
					l1.4,0.5l-0.1,1c0.1,0.5,0,0.9-0.2,1.4l0,0c-0.1,0.2-0.3,0.4-0.5,0.6L60.6,85.8z"/>
			</g>
		</g>
		<g>
			<path fill="#DCE6F0" d="M62.7,83.6c-0.7-0.7-1-0.5-1,0.5C62.2,84.2,62.5,84.1,62.7,83.6C62.6,83.4,62.8,83.8,62.7,83.6z"/>
			<g>
				<path fill="#384F66" d="M62.1,85.5L62.1,85.5c-0.3,0-0.5-0.1-0.8-0.2l-0.9-0.3l0-1c0-0.5,0-1.3,0.6-1.9l0.4-0.4l0.8-0.1
					c0.4,0,0.8,0.2,1.1,0.4h0.4l0.3,0.7l0.5,0.5l-0.1,0.3l0.1,0.1l-0.8,1.4h-0.2C63,85.4,62.6,85.5,62.1,85.5z"/>
			</g>
		</g>
		<g>
			<path fill="#DCE6F0" d="M64.5,86.3c1-0.5-0.4-1.5-0.9-1.7C62.8,84.3,63.3,86.9,64.5,86.3C65,86.1,64,86.6,64.5,86.3z"/>
			<g>
				<path fill="#384F66" d="M64.2,87.8L64.2,87.8c-0.1,0-0.1,0-0.2,0h-0.7l-0.1-0.3c-0.8-0.5-1.4-1.5-1.4-2.5c0-1.2,0.9-1.9,1.7-1.9
					h0.3l0.4,0.1c0.4,0.2,2,1.1,2.1,2.4c0,0.3,0,0.5-0.1,0.8l0.1,0.5l-1.2,0.6l0,0l0,0l0,0l-0.5,0.2C64.5,87.8,64.3,87.8,64.2,87.8z
					"/>
			</g>
		</g>
		<g>
			<path fill="#DCE6F0" d="M196.7,104.9c-0.3,0.2-2.8-0.2-2.4,1c0,0,2.9,1.4,2.7,1.2c0.2-0.9,0.3-1.8,0.5-2.7
				C197.2,104.6,196.9,104.8,196.7,104.9C196.4,105.1,196.8,104.8,196.7,104.9z"/>
			<g>
				<path fill="#384F66" d="M197,108.6c-0.4,0-0.4,0-2.6-1l-0.4-0.2h-0.7l-0.3-1c-0.3-0.9,0-1.5,0.2-1.8c0.7-1,2-1,2.8-1
					c0.1,0,0.1,0,0.2,0l3.2-1.9l-0.3,1.8h0.1l-0.2,0.3l-0.1,0.9c-0.1,0.6-0.2,1.2-0.3,1.8l0.1,0.1l-0.6,2.1H197z"/>
			</g>
		</g>
	</g>
	<path fill="#D1ECFB" d="M67.5,29.9c-0.1-0.1-0.4,0.2-0.3,0.3C67.3,30.3,67.6,30.1,67.5,29.9z"/>
	<path fill="#D1ECFB" d="M76.5,56.8c-0.1-0.1-0.4,0.2-0.3,0.3C76.3,57.2,76.6,56.9,76.5,56.8z"/>
</g>
<g>
	<path fill="#E9CF96" d="M71.1,144.9c2.1,4.6,1.8,10-0.8,14.4L32.8,224c-4.4,7.5-14.1,10.1-21.6,5.8c0,0-0.1-0.1-0.1-0.1
		c-7.5-4.4-10.1-14.1-5.7-21.7l37.5-64.7c2.5-4.3,6.9-7.1,11.7-7.8c-0.2,1.4-0.2,2.8,0.2,4.3c0.5,2,1.7,3.8,3.3,5.1
		c0,0,0.1,0.1,0.2,0.1c0.4,0.3,0.8,0.6,1.2,0.8c0,0,0,0,0,0c0,0,0.1,0.1,0.1,0.1l0,0l0,0c0.4,0.2,0.9,0.4,1.3,0.6
		c0.1,0,0.2,0.1,0.3,0.1c0.4,0.2,0.9,0.3,1.3,0.4c0.1,0,0.1,0,0.2,0c0.4,0.1,0.8,0.1,1.2,0.2c0.1,0,0.2,0,0.3,0c0.4,0,0.9,0,1.3,0
		c0.1,0,0.3,0,0.4,0c0.4,0,0.7-0.1,1.1-0.2c0.1,0,0.2,0,0.3-0.1c0.4-0.1,0.8-0.3,1.2-0.4c0.1,0,0.2-0.1,0.4-0.2
		c0.4-0.2,0.8-0.4,1.2-0.6c0,0,0.1-0.1,0.1-0.1C70.3,145.6,70.7,145.3,71.1,144.9C71,145,71.1,145,71.1,144.9z"/>
	<g>
		<g>
			<path fill="#FFFFFF" d="M162.6,103c9.1-15.6,11.5-33.9,6.9-51.3c-4.7-17.5-15.9-32.1-31.6-41.1c-15.6-9-33.8-11.4-51.2-6.8
				c-36,9.6-57.5,46.7-48,82.7c4.7,17.5,15.9,32.1,31.6,41.2c0,0,0,0,0,0c15.6,9,33.8,11.4,51.2,6.8
				C138.9,129.8,153.5,118.6,162.6,103z M79,112.6C67.3,105.9,59,95,55.5,82c-7.1-26.8,8.9-54.4,35.7-61.6
				c12.9-3.4,26.5-1.6,38.1,5.1c11.7,6.7,20,17.6,23.5,30.6c3.4,13,1.6,26.5-5.1,38.2c-6.7,11.6-17.6,20-30.6,23.4
				C104.1,121.1,90.6,119.3,79,112.6z"/>
			<path fill="#384F66" d="M69.6,128.8L69.6,128.8c-16-9.3-27.5-24.2-32.2-42c-4.7-17.8-2.2-36.4,7-52.4c9.3-16,24.2-27.4,41.9-32.1
				c17.8-4.7,36.3-2.3,52.3,6.9c16,9.2,27.5,24.2,32.2,42c4.7,17.8,2.2,36.4-7,52.4c-9.3,16-24.2,27.4-42,32.1
				C104.1,140.5,85.6,138,69.6,128.8L69.6,128.8z M137.2,11.8c-15.3-8.8-33.1-11.2-50.1-6.7C70,9.6,55.8,20.6,46.9,35.9
				C38,51.2,35.6,69,40.1,86.1c4.6,17.1,15.5,31.4,30.9,40.3l-0.7,1.2l0.7-1.2c15.3,8.8,33.1,11.2,50.1,6.7
				c17.1-4.5,31.3-15.5,40.2-30.8c8.9-15.3,11.3-33.1,6.7-50.2C163.5,34.9,152.6,20.6,137.2,11.8z M78.3,113.9
				c-12-7-20.6-18.1-24.2-31.5c-3.6-13.3-1.7-27.3,5.3-39.2c6.9-12,18.1-20.5,31.4-24.1c13.3-3.5,27.2-1.7,39.2,5.2l0,0
				c12,6.9,20.6,18.1,24.1,31.5c3.5,13.3,1.7,27.3-5.3,39.3c-6.9,12-18.1,20.5-31.4,24.1C104.1,122.6,90.2,120.8,78.3,113.9z
				 M128.6,26.7c-11.3-6.5-24.4-8.3-37-4.9c-12.6,3.4-23.1,11.4-29.7,22.7c-6.6,11.3-8.3,24.5-5,37.1c3.4,12.6,11.5,23.2,22.8,29.8
				c11.3,6.5,24.4,8.3,37,4.9c12.6-3.3,23.1-11.4,29.7-22.7c6.6-11.3,8.3-24.5,5-37.1C148,43.9,139.9,33.3,128.6,26.7L128.6,26.7z"
				/>
		</g>
		<g>
			<path fill="#FFFFFF" d="M78,131.4c-2.6-1.1-5.1-2.3-7.6-3.8c0,0,0,0,0,0c-2.6-1.5-5-3.1-7.4-4.9l-6.3,10.5
				c-2.4,4.1-1,9.4,3.1,11.8l0,0c4.1,2.4,9.4,1,11.8-3.2L78,131.4z"/>
			<path fill="#384F66" d="M59.1,146.3L59.1,146.3c0,0-0.1-0.1-0.1-0.1c-2.3-1.4-3.9-3.5-4.6-6.1c-0.7-2.6-0.3-5.3,1-7.6l6.3-10.5
				c0.2-0.3,0.6-0.6,1-0.7c0.4-0.1,0.8,0,1.1,0.3c2.4,1.8,4.8,3.4,7.2,4.8c2.3,1.3,4.8,2.6,7.5,3.7c0.4,0.2,0.7,0.5,0.8,0.9
				c0.1,0.4,0.1,0.8-0.1,1.2l-6.3,10.5C70.1,147.4,63.9,149.1,59.1,146.3z M63.4,124.8l-5.5,9.2c-1,1.7-1.2,3.6-0.7,5.5
				c0.5,1.9,1.7,3.4,3.4,4.4c0,0,0.1,0,0.1,0.1c3.4,1.9,7.8,0.7,9.8-2.7l5.5-9.1c-2.2-1-4.3-2.1-6.3-3.2
				C67.5,127.6,65.5,126.3,63.4,124.8z"/>
		</g>
		<g>
			<path fill="#384F66" d="M9.3,232.5L9.3,232.5c-8.9-5.2-12-16.7-6.8-25.6l37.5-64.7c3.3-5.7,9.5-9.3,16.1-9.3
				c0.5,0,0.9,0.2,1.2,0.6c0.3,0.4,0.3,0.9,0.1,1.3c-1.3,3.3,0,7.2,3.1,8.9c0,0,0.1,0,0.1,0.1c3.2,1.8,7.1,0.9,9.3-2
				c0.3-0.4,0.7-0.6,1.2-0.6c0.5,0,0.9,0.3,1.1,0.7c3.5,5.9,3.6,13.1,0.1,19l-37.5,64.7C29.7,234.6,18.3,237.6,9.3,232.5
				C9.4,232.5,9.3,232.5,9.3,232.5z M54.2,135.9c-4.9,0.6-9.2,3.5-11.7,7.8L5,208.3c-4.4,7.5-1.8,17.3,5.7,21.7
				c0.1,0,0.1,0.1,0.1,0.1c7.6,4.3,17.2,1.7,21.6-5.8L70,159.6c2.6-4.4,2.8-9.8,0.8-14.4c-3.2,2.8-7.9,3.3-11.6,1.1
				c0,0-0.1-0.1-0.1-0.1C55.4,144.1,53.6,139.9,54.2,135.9z"/>
		</g>
	</g>
</g>
<g>
	<g>
		<path fill="#E9CF96" d="M115.2,24.2c-7.9,0-14.4,6.5-14.4,14.4c0,6.2,9.6,16.1,14.4,20.3c4.7-4.2,14.4-14.1,14.4-20.3
			C129.6,30.6,123.1,24.2,115.2,24.2z"/>
		<g>
			<g>
				<path fill="#384F66" d="M115.2,62.2c-0.3,0-0.7-0.1-0.9-0.3c-0.7-0.6-16.3-14-16.3-23.3c0-9.5,7.7-17.2,17.2-17.2
					c9.5,0,17.2,7.7,17.2,17.2c0,9.3-15.6,22.7-16.3,23.3C115.9,62.1,115.5,62.2,115.2,62.2z M115.2,24.2c-7.9,0-14.4,6.5-14.4,14.4
					c0,6.2,9.6,16.1,14.4,20.3c4.7-4.2,14.4-14.1,14.4-20.3C129.6,30.6,123.1,24.2,115.2,24.2z"/>
			</g>
			<g>
				<path fill="#384F66" d="M115.2,46.8c-4.6,0-8.3-3.7-8.3-8.3c0-4.6,3.7-8.3,8.3-8.3c4.6,0,8.3,3.7,8.3,8.3
					C123.5,43.1,119.8,46.8,115.2,46.8z M115.2,33.1c-3,0-5.4,2.4-5.4,5.4c0,3,2.4,5.4,5.4,5.4c3,0,5.4-2.4,5.4-5.4
					C120.6,35.6,118.2,33.1,115.2,33.1z"/>
			</g>
		</g>
	</g>
	<path fill="#DCE6F0" d="M115.2,33.1c-3,0-5.4,2.4-5.4,5.4c0,3,2.4,5.4,5.4,5.4c3,0,5.4-2.4,5.4-5.4
		C120.6,35.6,118.2,33.1,115.2,33.1z"/>
</g>
</svg>
